 <svg width="0" height="0" className="hidden">
    <symbol
      xmlns="http://www.w3.org/2000/svg"
      viewBox="0 0 440.9 479.5"
      id="apple"
    >
      <title>apple</title>
      
<path d="M437,206.6c-8.1-45.7-32.6-90.4-74.6-112.8-21.7-11.6-47.1-17.5-71.6-15.9-18.7,1.3-35.2,7.3-51.9,14.1l-1-1a114.8,114.8,0,0,0-15.8-10.9A138.4,138.4,0,0,0,188,65.8a142.4,142.4,0,0,0-69.7-1.2C73.7,75,36.2,106.9,18.1,148.8c-19.9,46-20.1,97.5-15.8,146.6C6.4,342.3,17,393,56.7,423.1c20,15.1,43.4,21.7,68.3,18.3,11-1.5,22.5-4.6,33.7-3.5s20.1,7.8,28.6,14,19.4,14.4,30.8,19a116.5,116.5,0,0,0,37,8.4c24.8,1.6,49.7-5.2,71.4-17,42.1-22.8,73.7-64.7,92.5-107.9C439.5,307.7,445.9,256.8,437,206.6Z" fill="#ca4c4b"/><path d="M261,93.6c.7-6.1-4.7-9.2-3.5-14.5L264,50.6c3-13.3,10-30.5.5-42.6s-30.1-8.9-38.7,3.6-5.3,29.8-4.1,43.9L224,81.2c.9,10.5.3,23.8,11.7,27.6,8.2,2.7,19.9-3.2,23.8-10.7A12.9,12.9,0,0,0,261,93.6Z" fill="#674750"/><path d="M237.3,53.1c-1.9-15.6-17.5-27.8-30.3-34.9A128.5,128.5,0,0,0,164.7,3.8C135.1-.9,104,4.7,77.4,18.4c-6.9,3.6-6.6,16.3,2.7,16.3,16,0,23.8,17.2,33.5,27.2a69.8,69.8,0,0,0,36.2,19.9,68.2,68.2,0,0,0,39.6-3.5c7.4-3,14-7.5,21.4-10.4s15.9-1.2,20.8-6.1l1.1-1.4A7.4,7.4,0,0,0,237.3,53.1Z" fill="#78a25b"/><path d="M233,55.9c-1.7-6.6-4.7-8.4-10.7-11.8a129.3,129.3,0,0,0-15.9-7.8h0c-2.9-4.8-7.2-8.7-11-12.7-1.9-2-3.8-4.1-5.8-5.9s-1.8-1.5-2.5-2.3l-.2-.2a.9.9,0,0,0,.5-1.3,3.5,3.5,0,0,0-2.8-1.8c-1.6-.1-2.8,1.5-3.2,2.9-.8,3.2,2.2,6.4,4.1,8.7l6.9,7.9A226.1,226.1,0,0,0,167,25.6h-.1l-.4-.5C165.4,24,164.2,23,163,22l-6.6-5.7c-2.2-1.9-4.4-3.8-6.7-5.5l-3.4-2.4a10.4,10.4,0,0,0-1.9-1.1,3,3,0,0,0-1.5-.1q.7,0-.4-.3A2,2,0,0,0,140,9.5q.3,1,.4.3a2.3,2.3,0,0,0,.1,1.2,5.3,5.3,0,0,0,1.2,1.8c1,1.2,1.9,2.3,3,3.3s4.3,4.2,6.5,6.3l1.2,1.1c-8.3-1.1-16.6-2.1-24.9-2.7-11.8-.8-25.3-1.6-36.4,3.2a2.3,2.3,0,0,0,.7,4.3c11.1,1.1,22.2,1.6,33.4,3.1l-3.6,2c-2.2,1.4-5.4,2.9-6.2,5.7s.6,5.2,3.3,5.3,5.5-2.2,8-3.8a61.1,61.1,0,0,1,5.3-3.1q3-1.6,6.2-2.9l2.8-1c7.2.9,14.4,1.9,21.6,3.1q8,1.4,16,3.2l-4.7,1.8c-4.2,1.7-8.2,3.7-12.2,5.8s-7.9,4.4-11.8,6.7-8.8,4.7-11,8.9c-1,2,.4,4.6,2.1,5.5a4.3,4.3,0,0,0,2.9.4h-.1c2.4-.3,4.5-2,6.5-3.4l5.5-3.6c3.5-2.2,7-4.2,10.6-6.1s7.6-3.8,11.4-5.6l6-2.7c2.1-.9,4.3-1.6,6.2-2.9a4.1,4.1,0,0,0,1.3-1.5l7.5,2.5,5.2,2.1c-3.4,2-6.7,4.1-10,6.2l-8.1,5.1c-2.9,1.8-6.1,3.4-8.5,5.9s-2,3.3-.9,5.1a4,4,0,0,0,5,1.6c3.3-1.2,6.2-3.6,9.2-5.5l8-5.3a147,147,0,0,0,13.2-9.4l3.8,2c2.5,1.5,5,3.6,7.6,4.8s4,.9,6.8.8S233.5,57.9,233,55.9Z" fill="#b4ce8e"/><path d="M388.9,153.9c-8.5-14.4-34.4-48.6-53.8-28.9-12.7,13-6.4,36-5,52.1,1.8,21.8.6,45.9,11.3,65.4,12.2,22.3,42.6,18,54.9-1C412.3,216.9,403,177.7,388.9,153.9Z" fill="#d37570"/><path d="M384.7,325.4c1-6.8,3-14.2,2.7-21-.4-9.1-5.1-18-11.6-24.3s-16-9-23.9-5.9-16.9,8.3-21,16.4c-3.1,6.3-4.6,13.4-6.3,20.1-4,15.7,6.4,34.2,22.7,37.5S382.1,342.6,384.7,325.4Z" fill="#d37570"/><path d="M357.4,438.9c-36.2,10.1-77.3,9.1-108.7-11.5-21.9-14.4-38-37.3-61.9-47.9-19.4-8.6-41.7-8-62-14.4-36.2-11.3-62.6-44.2-75-80.1S36.8,210.3,38.1,172.4c.7-22,2.2-44.5,7.7-65.7a147.2,147.2,0,0,0-27.8,42.1c-19.9,46-20.1,97.5-15.8,146.6C6.4,342.3,17,393,56.7,423.1c20,15.1,43.4,21.7,68.3,18.3,11-1.5,22.5-4.6,33.7-3.5s20.1,7.8,28.6,14,19.4,14.4,30.8,19a116.5,116.5,0,0,0,37,8.4c24.8,1.6,49.7-5.2,71.4-17a175.2,175.2,0,0,0,34-24.4Z" fill="#b33839"/>

    </symbol>
    <symbol
      xmlns="http://www.w3.org/2000/svg"
      viewBox="0 0 583.85 677.11"
      id="bananas"
    >
      <title>bananas</title>

<path d="M283,43.4a141.93,141.93,0,0,0-7.64-17.11q-2.11-4-4.47-7.82a56.08,56.08,0,0,0-5.33-7.93,2,2,0,0,0-2.92-.08A1.81,1.81,0,0,0,261,11c-15.87,16.52-39.15,20.39-61.14,20.44-25.94.05-52.19-3-77.17,5.84-46.54,16.41-74.26,61-92,104.46A411.26,411.26,0,0,0,.14,285.68,372,372,0,0,0,24.4,428.62a367,367,0,0,0,32,64.26c12.76,20.32,27.3,39.75,44.23,56.19,3.51,3.4,7.05,6.76,10.67,10,5.39,5.66,11.26,10.74,18.75,13.86,8,3.32,17.74,4.66,25.74.71h0c8.28-4.09,12.42-12.47,12.62-21.44.23-10.11-3.16-19.79-6.16-29.3-3.8-12-7.81-24-11.83-36-8-23.85-16.07-47.71-22.69-72-6.51-23.89-11.62-48.24-13.63-73a270.87,270.87,0,0,1,3.7-70.93c4.17-22.7,11-44.85,19.11-66.41,8-21.24,17.07-42.35,28-62.27,10.73-19.57,24-37.77,41.36-52C223.88,75.9,244.07,65,264.55,55.25c4.52-2.14,9.07-4.24,13.61-6.34l1.57-.73a2,2,0,0,0,1-1A2.86,2.86,0,0,0,283,43.4Z" fill="#fbb03b"/><path d="M288.42,41.72c.7-1.37-14.61-.79-16.46-.53-6,.85-11.82,2.8-17.58,4.75S243,50,237.49,52.46a233.7,233.7,0,0,0-31.85,17.12c-25.11,16.11-57.28,31.4-88.35,96.16-14.4,30-23.38,62.5-27.65,95.47-4.69,36.23-3.3,72.94,2.13,109,6.27,41.71,17.92,82.42,32,122.14,7.09,20,14.84,39.8,22.94,59.43q3,7.24,6,14.46l3,7.21.09.21h0c8.28-4.09,12.42-12.47,12.62-21.44.23-10.11-3.16-19.79-6.16-29.3-3.8-12-7.81-24-11.83-36-8-23.85-16.07-47.71-22.69-72-6.51-23.89-11.62-48.24-13.63-73a270.87,270.87,0,0,1,3.7-70.93c4.17-22.7,11-44.85,19.11-66.41,8-21.24,17.07-42.35,28-62.27,10.73-19.57,24-37.77,41.36-52C223.88,75.9,244.07,65,264.55,55.25c4.52-2.14,9.07-4.24,13.61-6.34C277.16,47.2,290,43,288.42,41.72Z" fill="#ff9b00"/><path d="M168,562.29a3.45,3.45,0,0,0-4.79-2.48,26.82,26.82,0,0,0-14,12.3c-1.14,2.13-.4,5.56,2.58,5.61h.14a2.38,2.38,0,0,0,.71.31C161.49,580.27,170.1,570.92,168,562.29Z" fill="#311e1b"/><path d="M282,54.68c-4.75-5.4-12.1-8.47-19.18-8.95-19.68-1.32-61.39,38.15-70,47.33a240.45,240.45,0,0,0-40,58c-23.66,47.74-31.22,102.19-28,155C128.17,360.71,143,414.75,167,464A425.6,425.6,0,0,0,260.58,590.2a431,431,0,0,0,124.26,80.24c5.75,2.43,11.51,4.61,17.45,6.5a3.08,3.08,0,0,0,3.75-1.38,17.81,17.81,0,0,0,9.82-7c.22-.31.44-.62.64-.93,3.13-4.81,3.78-10.19,3.26-15.81a4,4,0,0,0-.15-.7,1.54,1.54,0,0,0,1.75-2.08c-20.15-48-51.72-89.85-80-133.21S286.65,428,267.15,380C249.41,336.48,237.8,290.18,236.7,243c-1-43.46,6.54-87.53,25.63-126.8A227.59,227.59,0,0,1,278.73,88c5.59-8.24,11.2-18.15,6.64-28.18A21.06,21.06,0,0,0,282,54.68Z" fill="#ffcd79"/><path d="M282,54.68c-54.54,52.16-82.88,129-83.45,204.17-.79,105.08,46.65,203.83,108.59,286.26,33,43.9,70.32,84.23,108.72,123.42.22-.31.44-.62.64-.93,3.13-4.81,3.78-10.19,3.26-15.81a4,4,0,0,0-.15-.7,1.54,1.54,0,0,0,1.75-2.08c-20.15-48-51.72-89.85-80-133.21S286.65,428,267.15,380C249.41,336.48,237.8,290.18,236.7,243c-1-43.46,6.54-87.53,25.63-126.8A227.59,227.59,0,0,1,278.73,88c5.59-8.24,11.2-18.15,6.64-28.18A21.06,21.06,0,0,0,282,54.68Z" fill="#ff9b00"/><path d="M415.74,647.71a32.08,32.08,0,0,0-11.27,14.52,33.09,33.09,0,0,0-2.7,10c-.26,2.17,1.94,4.48,4.16,3.89,11-2.92,17.73-15,16.17-26.05C421.65,646.86,418,646.1,415.74,647.71Z" fill="#311e1b"/><path d="M582.09,585.56q-1.16-1.82-2.36-3.62c-18.1-27.17-42.62-49.15-68.23-69.15-27-21.1-55.47-40.27-82.06-61.91q-2.64-2.15-5.23-4.35-3.47-3.54-6.89-7.13c-22.74-24-43.34-50.18-58.67-79.56q-3.92-7.51-7.42-15.21-3-5.71-5.76-11.51C326.66,294,313.75,252.34,303.56,210.2l-.08-.24c-6.09-17.32-11.86-34.87-14.73-53.06a133.78,133.78,0,0,1-1.59-26c.68-17.43,5.11-34.76,15.08-48.94a68.7,68.7,0,0,1,5.4-6.77A76.26,76.26,0,0,1,315.16,68a1.67,1.67,0,0,0,.21-2.47,2,2,0,0,0-.54-.46,1.86,1.86,0,0,0-.49-1.23,68.68,68.68,0,0,0-18.89-15.34,52.1,52.1,0,0,0-10.7-4.4c-1.13-.32-2.27-.59-3.42-.82a1,1,0,0,0-.84.17,1.13,1.13,0,0,0-.36.44,2.46,2.46,0,0,0-.31.34,415.6,415.6,0,0,1-27.65,34.59c-1.47,1.64-3,3.26-4.45,4.88L246.2,85l-1.41,1.19-.47.4-2.75,2.3c-3.33,2.77-6.66,5.51-9.92,8.26-9.3,7.87-18.42,16.1-25.94,25.73a104,104,0,0,0-17,32.86c-7.85,25-7.51,51.91-4.06,77.64,3.49,26.08,10,51.85,18.12,76.85A508.7,508.7,0,0,0,389.16,564.15c50.89,36.34,112.55,53.17,155.8,57q6.4.56,12.82.76a3.18,3.18,0,0,0,3.21-3.72,26.67,26.67,0,0,0,5.31-2.12,30,30,0,0,0,7.58-5.6q1-1,1.89-2.1a27.14,27.14,0,0,0,2.16-3.07A28.91,28.91,0,0,0,581.1,598c.87-3.09,1.71-7.05.94-10.33A1.82,1.82,0,0,0,582.09,585.56Z" fill="#ff9b00"/><path d="M452.3,557.46c-45.53-23.89-87.62-54.67-122.63-92.44s-60.86-86.27-80.93-133.92c-58.18-138.17-16.19-201,39.5-273.58q3.51-4.58,7.21-9a52.1,52.1,0,0,0-10.7-4.4c-1.13-.32-2.27-.59-3.42-.82a1,1,0,0,0-.84.17,1.13,1.13,0,0,0-.36.44,2.46,2.46,0,0,0-.31.34,415.6,415.6,0,0,1-27.65,34.59c-1.47,1.64-3,3.26-4.45,4.88L246.2,85l-1.41,1.19-.47.4-2.75,2.3c-3.33,2.77-6.66,5.51-9.92,8.26-9.3,7.87-18.42,16.1-25.94,25.73a103,103,0,0,0-17,32.86c-46.26,149,89.41,329.09,200.48,408.4,50.89,36.34,112.55,53.17,155.8,57q6.4.56,12.82.76a3.18,3.18,0,0,0,3.21-3.72,26.67,26.67,0,0,0,5.31-2.12,30,30,0,0,0,7.58-5.6q1-1,1.89-2.1a27.14,27.14,0,0,0,2.16-3.07C534.44,594,492.14,578.37,452.3,557.46Z" fill="#fbb03b"/><path d="M576,585.87A71.46,71.46,0,0,0,560.11,614c-.68,1.36-1.36,2.72-2.09,4.07a3.57,3.57,0,0,0,1.4,4.37,4.46,4.46,0,0,0,4.91-.27c11.76-7.53,19.27-20.56,19.52-33.72C583.93,584.35,578.91,582.67,576,585.87Z" fill="#311e1b"/><path d="M266.52,208.11l-.06-.34c0-.18,0-.63,0-.62a34.55,34.55,0,0,0-.86-4.15c-.34-1.92-2.54-3.06-4.32-2.82a4,4,0,0,0-3.41,3.87,8.34,8.34,0,0,0,1.13,5.5c1.18,1.7,2.42,3.1,4.61,3.29a3.08,3.08,0,0,0,2.94-2.24A5.24,5.24,0,0,0,266.52,208.11Z" fill="#a9502c"/><path d="M291.42,208.94c.72,1.68.19.35.06-.05a12.39,12.39,0,0,0-.76-1.94l-.43-.82-.06-.16a5.39,5.39,0,0,0-5.85-3.82c-2.41.32-4.88,2.59-4.62,5.24a19,19,0,0,0,.65,3.91,12,12,0,0,0,2.61,4.13c1.75,2,5.05,1.95,7,.42a5.11,5.11,0,0,0,1.92-2.78A6.27,6.27,0,0,0,291.42,208.94Z" fill="#a9502c"/><path d="M269.85,230.67c.18.67.13.3,0,0Z" fill="#a9502c"/><path d="M278.23,230.3a15.27,15.27,0,0,0-2.48-4.25,3.74,3.74,0,0,0-2.67-1.11,3.9,3.9,0,0,0-2.29.81,3.82,3.82,0,0,0-1,4.87l0,0,0-.14c.05.21.16.42.22.63a9.59,9.59,0,0,1,.29,1.32,4,4,0,0,0,2.86,2.86,4.32,4.32,0,0,0,4-1.05A4,4,0,0,0,278.23,230.3Z" fill="#a9502c"/><path d="M277.07,249.82c-.5-.76-1.09-1.46-1.66-2.16l-.13-.17-.82-1.13c-1.42-2-4.14-3.13-6.4-1.68s-2.74,4-1.68,6.4a20.56,20.56,0,0,0,2.6,4.71,7.74,7.74,0,0,0,4.88,2.58c2.06.42,4.5-1,4.36-3.32C278.12,253.18,278.15,251.46,277.07,249.82Z" fill="#a9502c"/><path d="M306.06,239a12.35,12.35,0,0,0-.74-1.72c-.28-.62-.59-1.22-.91-1.82a3.85,3.85,0,0,0-4.81-1.58c-1.6.68-3,2.76-2.23,4.55s1,4.31,3,5.18a4.07,4.07,0,0,0,3,.39,3.84,3.84,0,0,0,2.3-1.77A4.47,4.47,0,0,0,306.06,239Z" fill="#a9502c"/><path d="M299.62,269.79c-1.27-1.53-2.29-3.27-3.48-4.85a3.58,3.58,0,0,0-4.4-1.44c-1.45.64-2.72,2.51-2,4.16,1.65,4,3.41,13,9.64,10.4a4.31,4.31,0,0,0,2.35-4C301.68,272.35,300.66,271.05,299.62,269.79Z" fill="#a9502c"/><path d="M287.35,295.28a11.29,11.29,0,0,0-2.74-3.63,21.3,21.3,0,0,1-2.91-2.88,3.66,3.66,0,0,0-4.85-.29,3.78,3.78,0,0,0-1,4.76,21.65,21.65,0,0,0,2.19,3.94,9.51,9.51,0,0,0,5.06,3.55,3.7,3.7,0,0,0,3.9-1.33A3.8,3.8,0,0,0,287.35,295.28Z" fill="#a9502c"/><path d="M319.31,295.4c-.86-1.38-1.91-2.66-2.82-4a4,4,0,0,0-7.2,3c.28,1.59.51,3.24.93,4.8a8.72,8.72,0,0,0,4,5.08,4.06,4.06,0,0,0,5.91-2.4A8.14,8.14,0,0,0,319.31,295.4Z" fill="#a9502c"/><path d="M321.69,332.08a8.26,8.26,0,0,0-4.16-5.64c-.87-.45-1.79-.82-2.67-1.23a5,5,0,0,0-4.89,0,4.76,4.76,0,0,0-2.4,4.18c.09.92.17,1.84.27,2.76a8.88,8.88,0,0,0,1.23,4.05,8.3,8.3,0,0,0,3.26,3.08,6.45,6.45,0,0,0,7.07-.5,6.08,6.08,0,0,0,2-2.55A6.93,6.93,0,0,0,321.69,332.08Z" fill="#a9502c"/><path d="M370.47,402.72a7.66,7.66,0,0,0-1.06-2.49c-1-1.76-2.66-2.57-4.44-3.31l1.56.66a14.68,14.68,0,0,0-2.09-.89,13.85,13.85,0,0,0-2.06-.28l.13,0a4.9,4.9,0,0,0-3.1.65,5.62,5.62,0,0,0-2.43,3.15,7.89,7.89,0,0,0,.05,4.95,7.77,7.77,0,0,0,3.34,4.28,8.14,8.14,0,0,0,4.11,1.13,6.25,6.25,0,0,0,4.88-2.45A6.5,6.5,0,0,0,370.47,402.72Z" fill="#a9502c"/><path d="M327.38,386.16c-.28-2.61-.92-5-3.34-6.56a27.2,27.2,0,0,0-4.29-2,4.6,4.6,0,0,0-3.26.25,4.78,4.78,0,0,0-2.39,2,5.1,5.1,0,0,0,.78,6.06,30.79,30.79,0,0,1,2.24,2.39c1.2,1.36,2.89,1.78,4.58,2.17C324.26,391.08,327.71,389.2,327.38,386.16Z" fill="#a9502c"/><path d="M355.31,423.56l0-.1-.07-.48a2.36,2.36,0,0,0-.32-1.2,5.32,5.32,0,0,0-3-2.94,22.16,22.16,0,0,0-3.26-1.13,4.52,4.52,0,0,0-3.48,8.25,11.11,11.11,0,0,1,2.15,1.32l.51.4a5.25,5.25,0,0,0,4.1.44A3.65,3.65,0,0,0,355.31,423.56Z" fill="#a9502c"/><path d="M347.3,427.29h0C346.63,426.76,346.63,426.76,347.3,427.29Z" fill="#a9502c"/><path d="M266.09,268.83a1.89,1.89,0,0,0,0,3.77A1.89,1.89,0,0,0,266.09,268.83Z" fill="#a9502c"/><path d="M294.42,343.78c-4.64,0-4.65,7.22,0,7.22S299.07,343.78,294.42,343.78Z" fill="#a9502c"/><path d="M363.76,445.74a1.64,1.64,0,0,0,0,3.28A1.64,1.64,0,0,0,363.76,445.74Z" fill="#a9502c"/><path d="M403.46,461.88a15.9,15.9,0,0,0-3.31-4,21.19,21.19,0,0,0-3.83-2.12c-2.7-1.3-6.33-.83-7.86,2.06a5.9,5.9,0,0,0,2.06,7.86l1.47,1.07.32.24,1.12.87a16.87,16.87,0,0,0,4.28,1.51C401.81,470.57,405.95,465.61,403.46,461.88Z" fill="#a9502c"/><path d="M337.4,355.81a8.74,8.74,0,0,0-3-3.15,3.94,3.94,0,1,0-4,6.8l.11.08.12.11a9.57,9.57,0,0,0,.54.81,4,4,0,0,0,4.88,1.1,4.14,4.14,0,0,0,.84-.65,4.09,4.09,0,0,0,1.17-2.78A5.2,5.2,0,0,0,337.4,355.81Z" fill="#a9502c"/><path d="M333.73,361.91l-.09,0-.16,0Z" fill="#a9502c"/><path d="M333.73,361.91l.65.09Z" fill="#a9502c"/><path d="M343.76,371.5c-9.29,0-9.31,14.44,0,14.44S353.06,371.5,343.76,371.5Z" fill="#a9502c"/><path d="M381.14,427.46a5.73,5.73,0,0,0-1.88-3.22,7.39,7.39,0,0,0-2.55-1.28,3.5,3.5,0,0,0-3.41,5.85c.07.07.12.14.19.21a5.28,5.28,0,0,0,.76,1,7.51,7.51,0,0,1,.66.69,3.58,3.58,0,0,0,4.14,1A3.64,3.64,0,0,0,381.14,427.46Z" fill="#a9502c"/><path d="M432.61,467c-.26-.32-.48-.58-.32-.27a3.73,3.73,0,0,0-1.48-1.86,17.92,17.92,0,0,0-5.43-1.63,3.68,3.68,0,0,0-4.41,2.5c-.47,1.7.58,4.11,2.5,4.41a43.79,43.79,0,0,1,4.44,1,4.13,4.13,0,0,0,1.61.14,2.59,2.59,0,0,0,1.29-.41l-.52.25a5.8,5.8,0,0,0,2,.06,1.9,1.9,0,0,0,1.39-1.83A4.05,4.05,0,0,0,432.61,467Z" fill="#a9502c"/><path d="M429.7,491a4.35,4.35,0,0,0-.77-1.59,4.86,4.86,0,0,0-2.24-1.55c1.32.55,0-.08-.35-.27l-.33-.23-.13-.11a4,4,0,0,0-5.17-.31,3.9,3.9,0,0,0-1,5.08,15.22,15.22,0,0,0,3.67,3.74,4.18,4.18,0,0,0,4.32,0h0C429.63,495.28,430.88,492.77,429.7,491Z" fill="#a9502c"/><path d="M462,499.78c-1.35-.86-2.77-.71-4.26-.58a4.49,4.49,0,0,0-3,1.23,4.18,4.18,0,0,0,3,7.14c1.5.13,2.9.29,4.26-.58A4.23,4.23,0,0,0,462,499.78Z" fill="#a9502c"/><path d="M280,174.54c-.56-1.53-1.26-3.08-2.87-3.77a11.94,11.94,0,0,0-1.27-.53,4.69,4.69,0,0,0-2-.13,3.57,3.57,0,0,0-1.76.57l-.9.7a4.45,4.45,0,0,0-1.15,2,1.39,1.39,0,0,0-.11.68,3.49,3.49,0,0,0,.08,1.84,14.69,14.69,0,0,0,.6,1.4l-.1-.23a4.71,4.71,0,0,0,1.12,1.64,12.78,12.78,0,0,0,1.53,1.11l1.11.47,1.23.17a4.59,4.59,0,0,0,2.81-1,4.42,4.42,0,0,0,1.43-1.85A4.36,4.36,0,0,0,280,174.54Z" fill="#a9502c"/><path d="M342.68,43.26A227.29,227.29,0,0,1,310.5,1,2,2,0,0,0,308,.14a184.12,184.12,0,0,1-44.68,8.49c-1.6.12-1.51,2.85.11,2.84h.43a2.83,2.83,0,0,0,1.07,2.78,42.84,42.84,0,0,1,15.79,31.41c.07,1.57,1.87,2.38,3.2,2.25,13.13-1.29,25.87,7.83,31.51,19.8.81,1.71,3.68.05,4.8-1.19a152.4,152.4,0,0,1,22.2-20.24A2.16,2.16,0,0,0,342.68,43.26Z" fill="#311e1b"/>

     </symbol>
    <symbol
      xmlns="http://www.w3.org/2000/svg"
      viewBox="0 0 485.49 649.8"
      id="grapes"
    >
      <title>grapes</title>
    <path d="M245.7.55C206.06,15.39,170.33,52,165.69,93c-3.45-2.81-7-5.38-10.43-7.66-25.46-16.94-56-22.58-85.78-26.84-6.74-1-14.06,5.72-11,12.79,7,16.07-2.53,34.65-2.28,51.58A95.9,95.9,0,0,0,69.9,170.52a93.56,93.56,0,0,0,12.76,16.26c-5.24,1-10.24,2.19-14.78,3.28-29.16,7-56,21.23-67.18,50.52-1.62,4.22-.45,9.6,4.14,11.53a34.09,34.09,0,0,0,14.74,3.13c12.94.09,21.63.47,34.18,4.72,14.89,5,29.77,8,45.56,7.31,25.11-1,54.13-10.56,70.86-30.46.07.58.07,1.14.16,1.74a2,2,0,0,0,1.59,1.77c14.58,1.14,16.41-10.4,21.54-21.37,14.14-30.21,44.12-27,72.12-33.13,41.18-9.05,75.91-37.06,94.39-74.75,3.21-6.55-1.27-13-7.58-14.77-21.51-6.18-53.5-13.75-78.43-7.24a72.89,72.89,0,0,0,4.41-23.52c.2-20.85-19.36-35.4-18.53-55.69C260.11,3,251.58-1.64,245.7.55Z" fill="#b4ce8e"/><path d="M105,225.29c-4.14-.32-8.34-.3-12.49-.36-5.84-.09-11.68.07-17.51.31a20.6,20.6,0,0,0-2.62-3.49,48.12,48.12,0,0,0-5-4.83,36.79,36.79,0,0,0-6.49-4.66,22.61,22.61,0,0,0-3.48-1.61,7.32,7.32,0,0,0-2.1-.4,2.69,2.69,0,0,0-1.34.29q-.91.76-.45.24c-1-.13-1.43,1.1-1,1.84a3.42,3.42,0,0,0,.25,1.54,7.22,7.22,0,0,0,1.31,1.71c.78.81,1.68,1.51,2.51,2.28,1.79,1.67,3.68,3.14,5.49,5,.86.86,1.66,1.78,2.5,2.67-7.52.48-15,1.11-22.5,2.13-2.34.32-19.06,1.86-17.29,6.17,1.08,2.64,5,2,7.27,2,3.77,0,7.5-.19,11.26-.36l2.59-.1a54,54,0,0,0-4.37,4.3c-3.05,3.42-6,7.24-7.51,11.62-.7,2,1.84,3.32,3.33,2.1,3.23-2.66,6-5.86,9.1-8.71,1.5-1.39,3-2.77,4.57-4.08,1.76-1.48,4.21-3,4.9-5.32,0-.09,0-.18,0-.27,3.15-.12,6.3-.29,9.45-.35,7.38-.14,14.74,0,22.12.1q5.68.08,11.35.29c1.7.07,3.41.12,5.1.23a16.93,16.93,0,0,1,2.29.4l1.28.22-.08,0a13.64,13.64,0,0,0,1.36.3c2.11.36,4-1.86,4.13-3.79C113.22,227.65,109.52,225.64,105,225.29Z" fill="#78a25b"/><path d="M152,102.82c-.14.45-.39.52-.68.87a6.41,6.41,0,0,0-.54,1.17c.25-.44-.37.39-.37.4a6,6,0,0,0-.52,1.45c-.5,1.69-1.06,3.35-1.53,5.05-1,3.64-1.74,7.34-2.72,11s-2.27,7-3.43,10.45c-7.19-11.72-14.83-23.54-24.85-33A73.45,73.45,0,0,0,99.14,87.79C93.88,85.2,87.57,81.58,81.58,83a.55.55,0,0,0-.37.78c2.05,3.94,5.92,5.82,9.56,8.16a93.09,93.09,0,0,1,14.53,11,89.12,89.12,0,0,1,9.2,10.57,57.86,57.86,0,0,0-12.83-4.58,53.42,53.42,0,0,0-10-1.41,27.19,27.19,0,0,0-5.31.21c-.74.11-1.48.21-2.21.36a4,4,0,0,0-1.08.3c-.32.17-.76.93-.94,1-.89.25-1.12,1.68-.08,1.92.37.09.89.93,1.38,1.12a16.13,16.13,0,0,0,1.9.42c1.47.35,2.92.69,4.4,1,2.91.55,5.76,1.35,8.6,2.17A87.91,87.91,0,0,1,114,122.74c1.75.9,5.88,3,8,1.56,1.64,2.62,3.22,5.28,4.78,8,5.86,10.08,11.51,20.33,16.8,30.72.26.5.5,1,.75,1.52a48.94,48.94,0,0,1-7.93-.21c-5.47-.7-10.89-2.12-16.26-3.35-7-1.6-14-3.29-21.05-4.82-5.58-1.21-13-3.66-18.57-1.63a.55.55,0,0,0-.15.85c3.42,4.28,10.35,5.86,15.32,7.63,5.79,2.06,11.7,3.85,17.54,5.77,10.88,3.56,21.91,7.4,33.53,6.73a27.24,27.24,0,0,0,2.84-.34c.59,1.17,1.16,2.36,1.77,3.52,1.07,2,7.53,10.46,4.73,12.05a1.6,1.6,0,0,0-.12,2.75c9.25,4.73,11.58-9,9.44-15-4.52-12.77-11.19-25.08-18.17-36.83a21.09,21.09,0,0,0,3.13-5.25A64.14,64.14,0,0,0,154,125a49.29,49.29,0,0,0,1.74-11.69,44.32,44.32,0,0,0-.49-6.12,9.21,9.21,0,0,0-.74-2.28c.13.28-.17-.81-.24-.94-.26-.45-.64-.6-.77-1.13A.82.82,0,0,0,152,102.82Z" fill="#78a25b"/><path d="M244.44,30.4c-6.06,2.63-8.86,6.48-11.77,12.49s-5.39,12.27-7.74,18.52c-.28.74-.52,1.5-.79,2.25Q223,61.49,222,59.3c-.82-1.66-1.6-3.34-2.41-5a24.55,24.55,0,0,0-1.35-2.65l-.71-1.07a3.83,3.83,0,0,0-1.37-1.49q.35.42-.1-.11L216,49a2.87,2.87,0,0,0-1.71-1,3,3,0,0,0-3.49,2.46l-.31.7a3.7,3.7,0,0,0-.16,1.36c0,.4,0,.81,0,1.21a19.83,19.83,0,0,0,.61,3.6,57.42,57.42,0,0,0,2,6.32A56.42,56.42,0,0,0,215.2,69c1,2,2,4.34,3.52,6A5.2,5.2,0,0,0,220,76c-2.53,8.15-4.71,16.4-6.44,24.77-1.49,7.19-2.65,14.45-3.6,21.74-2-2.6-3.95-5.19-6-7.74l-6.6-8.29c-2.09-2.62-4-5.62-7.22-6.9-4.5-1.78-7.36,4.9-3.66,7.54l.42.67c.57.87,1.19,1.71,1.8,2.55l2.7,3.67,5.85,8c1.95,2.65,4,5.24,6,7.85,1.52,2,3.09,4.71,5.33,6-.12,1.4-.34,2.8-.44,4.2-.68,9.87-3.87,28.63,5.33,35.64a1.46,1.46,0,0,0,1.75-.16c3.7-3.44,4.41-9.67,4.75-14.46.46-6.48.33-13,.74-19.5.51-8,1.48-15.92,2.68-23.83a3.68,3.68,0,0,0,2.89.17c3.12-1.23,6-3.83,8.62-5.88s5.34-4.26,8.07-6.33,5.67-3.93,8.15-6.19A13.26,13.26,0,0,0,254,95.14a3.64,3.64,0,0,0-.23-4.07c-1.15-1.35-2.62-1.1-4.12-.94a10.69,10.69,0,0,0-3.67.69,14.67,14.67,0,0,0-2.41,1.49,99.43,99.43,0,0,0-8.08,6.27,88.24,88.24,0,0,0-7.43,7c-1.06,1.18-2.16,2.39-3.18,3.66.41-2.23.69-4.49,1.16-6.71a305.92,305.92,0,0,1,10.17-36.66c.34-1,.74-2,1.1-2.95.32,0,.64,0,.93,0a39.55,39.55,0,0,0,4.6-.71,27.32,27.32,0,0,0,4.66-1.63,9,9,0,0,0,4-3,7.2,7.2,0,0,0,1.83-2.5l.36-.52a1.85,1.85,0,0,0-1.48-2.8l-.85,0a7.48,7.48,0,0,0-2-.06h-.14q1,.22-.61-.09a7.68,7.68,0,0,0-1.65.17,14.53,14.53,0,0,0-3,.88l-1.06.4-.49.17c-.53.18-1,.41-1.54.62l2.47-6.18c2.41-6,3.64-10.56,2.23-16.84A.69.69,0,0,0,244.44,30.4Z" fill="#78a25b"/><path d="M333,105a4.55,4.55,0,0,0,.1-2.11,2.68,2.68,0,0,0-1.2-2.55,2.8,2.8,0,0,0-3.14.28,3.68,3.68,0,0,0-.75.33,12.56,12.56,0,0,0-1.34,1.09c-.07,0-.14.12-.21.17l-.05,0h0a5.93,5.93,0,0,0-1.08,1.06c-.16.2-.32.46-.5.69,0,0,0,0-.15.15l-.47.54c-.17.2-.33.42-.5.62-2.48.38-4.89.89-7,1.37a84.15,84.15,0,0,0-17.33,6.12,31.35,31.35,0,0,0,2.36-6.35,4.21,4.21,0,0,0-6.87-4.34c-3.83,3.41-5.85,8.47-7.68,13.15a43.51,43.51,0,0,0-1.83,5.47,91.63,91.63,0,0,0-14.14,11.49c-5.23,5.27-14.2,13.59-12.17,21.87a3.58,3.58,0,0,0,4.18,2.69c7.19-1.56,11.64-10.35,16.55-15.24a93.57,93.57,0,0,1,18.4-14.46c2-1.15,4-2.19,6-3.18a5.43,5.43,0,0,0,1.59,2,15.65,15.65,0,0,0,3.18,2.37,48.52,48.52,0,0,0,7.31,3.19q3.38,1.1,6.84,1.94a34.2,34.2,0,0,0,4.27.72c1.61.18,3.5.33,4.92-.58a4.08,4.08,0,0,0,1.12-6.28c-1.66-2-5.1-2.42-7.53-2.89s-4.65-1-6.94-1.61-4.47-1.12-6.7-1.7c-.44-.11-.88-.12-1.31-.2,2.71-1.08,5.45-2.09,8.25-3,6.85-2.17,16-2.54,21.32-7.53a1.66,1.66,0,0,0-.24-2.58A13.83,13.83,0,0,0,333,105Z" fill="#78a25b"/><path d="M382.33,184.49c-9.15-30.21-38.92-54-70.67-54.64-27.24-.57-51.37,14.19-65.18,36.07-20.1-18.18-50.56-24.88-76.11-14.46s-40.8,35.87-42.46,62.27a42.73,42.73,0,0,0-27.7,6C86.47,228.39,78.86,243,79.54,258.12c-30.9,6.29-55.75,35.75-59.41,67-4,34.44,18.34,68.84,49.8,82-2.9,50.16,40.71,95.11,89.68,99.09-1.72,21.61,5.75,44.2,22,58.88a73.83,73.83,0,0,0,63.27,17.74c15.92,38,54,71.83,96.91,66.36,23.68-3,41.1-22,49.32-43.36,6.32-16.4,6.54-34.59,4.6-52.18,24.44-5.13,45.92-21.54,56.37-44.8,10-22.16,8.06-48.32-3.35-69.43,21.53-13.48,36.51-37,36.75-63.17.24-26.73-14.56-51.69-36.75-65.6,12.52-23.69,14.36-52.15,2.73-77.33C439.1,206.61,411.5,187.71,382.33,184.49Z" fill="#7b547f"/><path d="M353.57,209.44c-18.72,11.31-38.17,23.84-61.2,17.4-22.32-6.24-26.06-27.92-43.46-39.34a3,3,0,0,0-3.57.28,9,9,0,0,0-7.89,5.88c-3.41,8.17-2.86,16.85-6.46,25.1-4.88,11.17-14.17,20.33-25.78,24.26-19.52,6.6-44.16-2.14-53.1-21.47-3.56-7.69-15.51-4.68-15.8,3.47-.87,23.83,29.28,38,53.22,40.31-6.67,9-4.38,19.41.87,28.75a5.85,5.85,0,0,0-6.09,2c-10.16,11.95-22.42,20.24-38.76,18-21.64-3-39.55-18.4-43.73-40-1.71-8.87-16.82-8-16.12,1.39,2.44,32.77,27.27,57,59.47,62.57a49.88,49.88,0,0,0,5.61.58c-5.55,6.15-8.57,14.56-13.84,22-11.58,16.32-25.94,24.4-45.53,27.09-7.38,1-7.8,12.83-.61,14.52,19,4.46,38.28-2.18,52.92-14.8.85-.73,1.72-1.51,2.61-2.34,2.32,31,28.15,60.65,56.91,68.42-.53.84-1,1.66-1.42,2.4a99.43,99.43,0,0,1-17.14,22.72c-5.05,5-12.51,9.35-14,16.76a2.58,2.58,0,0,0,1,2.79c14.07,10.12,42.72-10.77,52.26-30.84,4.22,9.77,13.57,18.87,20.49,24.69C257.73,503,276,511.59,293.81,511.63c-3.65,10.14-4.33,20.67-10.71,30.27-8,12-20.29,15.9-30.2,25.37-4.85,4.63-1.49,11.82,4.62,12.64,24,3.24,49.76-21.1,56.92-46.2a99.3,99.3,0,0,0,15.08,10.15c15.4,8.43,37.53,15.68,52.86,4.26,3.09-2.3,4.09-7,3.36-10.6a13.66,13.66,0,0,0-6.51-9.61,2.88,2.88,0,0,0-3.93.91c-1,1.78-13.06.94-14.94.78a63.33,63.33,0,0,1-22.79-6.65c-7.44-3.79-13.28-11.06-19.89-16.42,22.61-9.27,45-29.89,42.23-51.06a28.56,28.56,0,0,0,3.93-12,9,9,0,0,0-4.21-8,7.69,7.69,0,0,0-9.93.76c-.12-.12-.2-.25-.33-.37a2.48,2.48,0,0,0-4.24,1.55c-1,11.32-15.74,26.86-24.07,33.36-11.24,8.78-23.87,15.07-38.3,12.38-12.92-2.41-25.22-9.76-34.41-19.07-4.32-4.37-7.22-9.31-11.38-12.8a55.28,55.28,0,0,0,20.45-16.4c3.94-4.95,5.19-10.21,4.46-14.59,2.66.64,5.44,1.17,8.4,1.59,22.82,3.22,44.24-.25,57.57-19.72C336.54,412.24,349.6,421,356.93,425c18,9.69,50.31,19.29,64.52-.27,5.78-8-2.9-18.78-11.84-16.82-18,3.94-35,1-51.13-8.14a78.68,78.68,0,0,1-20.14-16.51l-.3-.35c6.39-15,10.88-32.61,7.61-47,8.86,2.44,17.84,3.17,25.3,1.9,13.2-2.25,27.73-11.24,34.48-22.81,11.41,3.33,21.85,2,28.16-6.9,2.56-3.59.8-8.51-2.5-10.83-8.37-5.89-18.87-7.86-28.38-12-.09-.11-.14-.21-.23-.32a2.14,2.14,0,0,0-2.1-.73,45.09,45.09,0,0,1-4.69-2.61,67.8,67.8,0,0,1-28-35.4,10.78,10.78,0,0,0-6.6-6.25,33.91,33.91,0,0,0,9.49-11.94C375.31,217.6,365.92,202,353.57,209.44Zm-31.14,122c-3.72,12.42-5.44,25.27-9.62,37.61-2.47,7.3-5.52,18.33-11.65,23.46-6.89,5.76-18.27,5.11-26.6,4.76-20.56-.86-32.48-12.41-38.23-31.88-2.93-9.9-.41-19.91-4-29.5a2.74,2.74,0,0,0-3.66-1.18c-16.89,8.65-11.2,34.57-5.8,49.1,4.87,13.12,11.32,22.18,20.23,28.36-.34.14-.67.24-1,.4-7.19,3.43-12.35,10.57-19.71,13.69-11.46,4.85-20.54,2.24-30.6-4.13-19-12-26-29.31-33-49.65a7.15,7.15,0,0,0-.56-1.05c7.64-10.56,13-23.18,8.92-34.09,17.47-3.49,34.05-13.92,31.18-32,1.6,1.87,3.22,3.62,4.79,5.2,14,14,32.74,23.62,52.65,24.91,16.66,1.08,41.36-8,55.75-22.14a47.7,47.7,0,0,0,13.79,13.45A10.44,10.44,0,0,0,322.43,331.41Zm59.06-29.15c-6.52,5-13.68,8.83-20.53,9.56-15.71,1.67-26.73-7.61-39.45-13.19,3.1-8.59,2.08-18.09-5.52-27.88a3.15,3.15,0,0,0-4.41-.19c-16,15.21-26.42,38-51.05,39.8-28.37,2.1-50.53-17.92-59.06-43.06a8.24,8.24,0,0,0-.86-1.79,42.9,42.9,0,0,0,5-.65c16.32-3.23,37.59-18.73,47.38-37,8.75,11.69,21.84,20.82,34.48,24.49,16.32,4.75,43.76,3.57,63.2-5.9C345.36,263.41,361.53,287.2,381.49,302.26Z" fill="#51445e"/><path d="M121.72,429.12l2.48,2.06c-4.29-3.65-9-5.83-14.79-4.56A16,16,0,0,0,97.6,437.47C96,443,95.82,448.69,98.93,453.8c3,4.92,6.92,9.84,12.87,11.17,5.19,1.16,9.75.74,14.17-2.35,3.91-2.73,7.44-7.61,7.12-12.69-.2-3.22-.28-6.2-1.9-9.15-.44-.8-.94-1.51-1.34-2.34-1-2.11-1.33-3.44-3.38-5.49A50.22,50.22,0,0,0,121.72,429.12Z" fill="#9a7fa3"/><path d="M152.93,452.21a9.64,9.64,0,0,0-6.22-2.89,9,9,0,0,0-9.33,8.57c0,2.25.61,4.87,2.35,6.44l.83.74a9.64,9.64,0,0,0,6.22,2.89,9,9,0,0,0,9.33-8.57c0-2.25-.62-4.87-2.35-6.44Z" fill="#9a7fa3"/><path d="M53.26,304.34c-2.9-1.66-5.76-1.54-8.78-.42-5.06,1.89-6.38,9.82-4.78,14.29,1,2.72,2.46,5.41,5,7,2.77,1.74,7.06,2.24,10,.56,5.81-3.32,6.68-10.09,4.06-15.81A15.53,15.53,0,0,0,53.26,304.34Z" fill="#9a7fa3"/><path d="M213.41,522.84c.59.26,3.1,1.51,1.23.43-7.81-4.48-16.86.54-17.73,9.35A14.47,14.47,0,0,0,202,545a14.2,14.2,0,0,0,6.77,3.12A15.09,15.09,0,0,0,217.1,547c2.35-.86,4.21-3.43,5.18-5.56,1.13-2.48,1.12-4.54.88-7.27-.22-2.41-2.21-5.69-3.77-7.45A15.26,15.26,0,0,0,213.41,522.84Z" fill="#9a7fa3"/><path d="M311,594.13c-6,5.92-5.59,13.82-.86,20.3,3,4.06,8.76,6.62,13.58,7.44a22.33,22.33,0,0,0,5.68.35,20.65,20.65,0,0,0,12.67-4.89c6.83-5.28,6.38-16.59,1-22.52C335.27,586.31,319.35,585.94,311,594.13Z" fill="#9a7fa3"/><path d="M363.5,581.39l-.13-.07.71.12a7.75,7.75,0,0,1-1.28-.38,10.25,10.25,0,0,0-4.47-1.19c-1.42,0-2.72.41-4.09.54l1.53-.13a9.52,9.52,0,0,0-7,3.44,9.82,9.82,0,0,0-2.07,8.13,11.87,11.87,0,0,0,9.67,10,15.8,15.8,0,0,0,9.72-1.58c3.86-2,6.43-6.89,5.29-11.21a12,12,0,0,0-2.45-4.72A9.31,9.31,0,0,0,363.5,581.39Z" fill="#9a7fa3"/><path d="M419.13,477.13c-5.36-3-12.67-2.94-17.26,1.6a19,19,0,0,0-4.27,5.61,17.25,17.25,0,0,0-1.73,6.39c-.55,7.64,6,14.19,13.43,14.61a15.88,15.88,0,0,0,15.93-11.87C426.71,487.52,424.82,480.35,419.13,477.13Z" fill="#9a7fa3"/><path d="M425.24,358.76a35.65,35.65,0,0,0-5.41,3.66c-2.74,2.61-3.88,5.93-5.37,9.26s-.66,9,1.06,12a16.58,16.58,0,0,0,7.65,7.14c7,3.2,16.14,1,20.2-6,2.18-3.73,3.73-7.53,3.35-12a21.35,21.35,0,0,0-2.37-8C441.12,358.58,431.68,354.59,425.24,358.76Z" fill="#9a7fa3"/><path d="M288.81,436.32l2,.34a6.34,6.34,0,0,0-1.9-.33Z" fill="#9a7fa3"/><path d="M293.81,438.3a4.14,4.14,0,0,0-1.84-1.16,6.16,6.16,0,0,0-1.17-.48,9.06,9.06,0,0,0-4.25-.17,8.93,8.93,0,0,0-4,2.09c-.16.15-.27.34-.42.51-4.19,3-4.17,10.12.49,12.81a10.79,10.79,0,0,0,5.05,1.51,8.89,8.89,0,0,0,6.45-2.33l1.46-1.76a6.43,6.43,0,0,0,1.1-3.08,8.16,8.16,0,0,0,0-3.37l-.73-2A6.3,6.3,0,0,0,293.81,438.3Z" fill="#9a7fa3"/><path d="M290.8,436.66h0l.13,0Z" fill="#9a7fa3"/><path d="M193.64,376.36l-.94-.78s0-.06-.21-.23a6.56,6.56,0,0,0-3.28-2.49l-.09-.11a4,4,0,0,0-4.7-.84,9.84,9.84,0,0,0-5.64,8.17,12,12,0,0,0,6.33,11.33c3,1.66,7.16,1.69,9.75-.9,2.3-2.31,3.74-6.65,1.72-9.64-.37-.54-.73-1.13-1.12-1.68l-.21-.39A11.67,11.67,0,0,0,193.64,376.36Z" fill="#9a7fa3"/><path d="M275.67,352.34a10.47,10.47,0,0,0-2.84-1.19,22.13,22.13,0,0,0-4.18-.88,10.38,10.38,0,0,0-9.75,6.06,9.85,9.85,0,0,0-.89,5.14,5.16,5.16,0,0,0,.56,2.58,7.77,7.77,0,0,0,2,3.53,11.23,11.23,0,0,0,5.32,3.36,19,19,0,0,0,3.76.71c2.51.34,5.73-1.11,7.51-2.75a10.64,10.64,0,0,0,3.37-7.26,10.52,10.52,0,0,0-2.75-7.51Z" fill="#9a7fa3"/><path d="M256.1,269.59a5.16,5.16,0,0,0-2.29-1.45,7.77,7.77,0,0,0-3.84-1c-2,.08-4,.1-5.79,1.14a13,13,0,0,0-4.37,4.1l-1.1,2.41a7.71,7.71,0,0,0-.33,3.87,5.1,5.1,0,0,0,.56,2.55,7.68,7.68,0,0,0,2,3.49,29.48,29.48,0,0,0,2.33,1.93,11.12,11.12,0,0,0,5.29,1.64,10.9,10.9,0,0,0,8-3.13l1.78-2.14,1.12-2.45.45-2.61a7.77,7.77,0,0,0-.68-3.91,5.16,5.16,0,0,0-1.25-2.41A5.23,5.23,0,0,0,256.1,269.59Z" fill="#9a7fa3"/><path d="M435,241.59a20.36,20.36,0,0,0-11.83-6.43,16.56,16.56,0,0,0-14.34,4.34,13.57,13.57,0,0,0-4,12.63,12.58,12.58,0,0,0,3.74,6.54,17.27,17.27,0,0,0,2.9,4.13,24.3,24.3,0,0,0,4.76,3.76c2.47,1.42,5.88,2.87,8.8,2.63l3.94-.34a11.51,11.51,0,0,0,5.48-2.54,14.79,14.79,0,0,0,6-8,18.47,18.47,0,0,0,.33-7.84C440.19,246.69,437.8,243.94,435,241.59Z" fill="#9a7fa3"/><path d="M406.58,224.38a8.36,8.36,0,0,0,.16-2.32c-.32-3.74-3.71-7.85-7.83-7.57a13.9,13.9,0,0,0-5.58,1.27,12.27,12.27,0,0,0-4.43,4,15,15,0,0,0-2.48,7.37,12.53,12.53,0,0,0,3.22,9.5c2.79,3,7.33,4.82,11.41,3.8a9.33,9.33,0,0,0,7-10.89v-.05a7,7,0,0,0-.69-2.6A10.43,10.43,0,0,0,406.58,224.38Z" fill="#9a7fa3"/><path d="M308.16,149.14a22.78,22.78,0,0,0-5-.78,13.71,13.71,0,0,0-13.08,7.91c-2.19,4.79-1.76,10.2,1.9,14l-.21-.17a2,2,0,0,1,.28.28,11.12,11.12,0,0,0,4.48,3.24,11,11,0,0,0,5.35,1.38c.3,0,.59,0,.88,0a13.25,13.25,0,0,0,7.52-1.31,13.6,13.6,0,0,0,6.64-7.92,13.43,13.43,0,0,0-.88-10C314.37,152.78,311.63,150,308.16,149.14Z" fill="#9a7fa3"/><path d="M195,172.6a9.21,9.21,0,0,0-6-1.69,13.28,13.28,0,0,0-8.41,3.16c-4.55,3.53-5.63,9.68-1.83,14.23,5.36,6.41,18.42,3.14,20.24-5C200,178.84,198.52,175.37,195,172.6Z" fill="#9a7fa3"/><path d="M123.22,245.11c-.56-.37-1.06-.83-1.62-1.19a15.38,15.38,0,0,0-2-1q1.12.44.24-.13c-2-1.59-5.77-.62-6.9,1.59a19.63,19.63,0,0,0-2.28,7c-.47,3.89,1,7.16,3.74,9.9a8.71,8.71,0,0,0,14.14-9.85,12.67,12.67,0,0,0-2.2-4A16,16,0,0,0,123.22,245.11Z" fill="#9a7fa3"/>  
    </symbol>
    <symbol
      xmlns="http://www.w3.org/2000/svg"
      viewBox="0 0 426.85 293.01"
      id="lemon"
    >
      <title>lemon</title>
      
<path d="M423.66,43.28c-3.23-.55-7.22-1.1-11.84-1.66C354.74,34.73,200.68,27.11,179,24.32c-25.71-3.31-51.4-6.67-77-10.47S50.37,6.37,24.61,2.43c-1.2-.18-3.11-.55-5.36-1A75.8,75.8,0,0,0,5.66,0C4,6.31,3.16,12.7,1.68,26.21a350.5,350.5,0,0,0-.57,62.28c2.27,26.9,8,53.71,18.22,78.75a212.73,212.73,0,0,0,43.17,67.18A185.76,185.76,0,0,0,121,275.12a211.51,211.51,0,0,0,69.38,17.28A215,215,0,0,0,264.15,285a225.11,225.11,0,0,0,68.74-32.35,214.76,214.76,0,0,0,52.36-51.74,228.46,228.46,0,0,0,31.4-63.47,221.89,221.89,0,0,0,10.16-68.59q-.08-8.39-.84-16.76A24.42,24.42,0,0,0,423.66,43.28Z" fill="#fff"/><path d="M190.81,39.79c-3.13-6.29-10-8.54-16.49-9.59-7.95-1.29-15.91-2.47-23.87-3.71Q102.33,19,54.2,11.73C40.29,9.64,35-1.92,30.07,49.75a184.79,184.79,0,0,0,.68,41.58c.86,6.53,1.79,13.33,3.91,19.59,1.89,5.56,5.23,11.09,11,13.27,5.93,2.27,12.32.56,18-1.72,7-2.81,13.84-6,20.67-9.22a737.27,737.27,0,0,0,82.89-45.37c6.19-3.92,12.61-7.74,18.45-12.18C190.7,51.83,193.92,46,190.81,39.79Z" fill="#ffdc7c"/><path d="M200.57,63.16a11,11,0,0,0-7.8-6.49c-4.47-.76-7.94,2.38-11.25,4.87q-11.09,8.31-22.63,16C128.21,98,95.37,114.55,61,128q-6.37,2.49-12.82,4.74c-4.39,1.53-.68,16,2,21.35,3.51,7,8.14,13.52,12.61,19.91,9.25,13.22,19.11,26,30.51,37.47a175.66,175.66,0,0,0,37.8,29.19c6.81,3.86,14.82,8.46,23,7.16,8.5-1.35,12-8.53,13.69-16.18,2.06-9.48,3.65-19.06,5.72-28.54L179.63,175c4.13-19,8.2-37.95,12-57,1.9-9.39,3.73-18.77,5.84-28.12,1.08-4.75,2.32-9.47,3.35-14.24C201.76,71.62,202.35,67.07,200.57,63.16Z" fill="#ffdc7c"/><path d="M343.4,163.52a146.79,146.79,0,0,0-12-8.49c-4.24-2.86-8.51-5.64-12.8-8.4a228,228,0,0,1-24-17.18c-22.13-18.67-41.23-40.64-61-64.25-3-3.54-6-7.21-10.37-8.83-4-1.47-8.56-1.31-12,1.48-4.94,4-25.36,119.19-30.16,155.32-1.33,10-1.64,20.06-2.41,30.09-.36,4.71-.59,9.92,3.56,13.12,3.35,2.59,7.86,2.66,11.91,2.55,10.79-.29,21.65-.86,32.4-1.79,39.5-3.42,81.61-14.8,109-45.29a132.45,132.45,0,0,0,8.89-11.14A48.15,48.15,0,0,0,351,188.78a21.48,21.48,0,0,0,.72-13.49A25.76,25.76,0,0,0,343.4,163.52Z" fill="#ffdc7c"/><path d="M386.92,50.34c-2.66-2.49-6.25-3.67-9.78-4.25-4.13-.67-8.34-.94-12.5-1.37C346.81,42.88,329,41,311.14,39.23l-54-5.21c-4.39-.42-8.77-.91-13.16-1.24-3.7-.28-7.62-.27-11.12,1.15-11.7,4.75-5,15.3-3.46,17.18,23.51,28.14,40.73,46.47,69.92,71.75q19,16.45,38.76,32,5,3.93,10,7.76c3,2.31,6,5,9.48,6.65s7.33,1.89,10.55-.28c3.45-2.33,4.23-6,5.83-9.54a215.81,215.81,0,0,0,19-88.95C392.94,63.51,392.4,55.46,386.92,50.34Z" fill="#ffdc7c"/><path d="M423.66,43.28c-3.23-.55-9.58-1.42-14.21-2-.13,14.56,13.73,115.58-71.51,186.44-38.31,31.93-87.43,50.31-139.91,48.4a51,51,0,0,1-8.08-.46l.86.07c-2.82-.63-45.6-1.71-88.63-30a10.88,10.88,0,0,1-1.56-1l.63.43c-8.63-6.44-36.07-23.45-59.49-68.85-10.12-19.65-18.49-44.59-22.5-70.23-9.94-63,0-104.65,0-104.65A75.8,75.8,0,0,0,5.66,0C4,6.31,3.16,12.7,1.68,26.21a350.5,350.5,0,0,0-.57,62.28c4.58,54.39,23.26,106.26,61.4,145.93A185.76,185.76,0,0,0,121,275.12a211.51,211.51,0,0,0,69.38,17.28A215,215,0,0,0,264.15,285C370.52,255.7,435.27,154.87,426,52.11A24.42,24.42,0,0,0,423.66,43.28Z" fill="#ffcd79"/><path d="M2.95,33.42v0Z" fill="#ffcd79"/><path d="M3.07,31.88v0Z" fill="#ffcd79"/><path d="M70.24,44.35c-3-2.79-6.71-2.53-10.51-2.31a45.94,45.94,0,0,0-9.46,1.77,4.12,4.12,0,0,0-2.79,4.08,4.26,4.26,0,0,0,3.23,3.78,39.74,39.74,0,0,0,8.48,2c3.63.36,7.51,1.06,10.53-1.46C72.2,50.14,72.78,46.72,70.24,44.35Z" fill="#ffcd79"/><path d="M101.85,33.24a29.94,29.94,0,0,0-10.17-.48c-2.88.31-6.44.62-8.72,2.65-.7.36-1.34.73-2.06,1.16a1.59,1.59,0,0,0-.17,2.5c.67.53,1.25,1,1.91,1.45,2,2.26,5.35,3,8.13,3.72a29.92,29.92,0,0,0,10.14.9C107.63,44.45,108.64,34.85,101.85,33.24Z" fill="#ffcd79"/><path d="M88.32,59a49.92,49.92,0,0,0-9.43,1.53c-2.79.73-5.39,2-8.16,2.72a3.63,3.63,0,0,0-2.41,4.13,3.73,3.73,0,0,0,3.74,3c1.38.1,2.67.57,4,.67s3,.34,4.43.39a48.79,48.79,0,0,0,8.4-.32c3.13-.42,6.08-2.92,5.75-6.36A6.17,6.17,0,0,0,88.32,59Z" fill="#ffcd79"/><path d="M72,87.05a17.88,17.88,0,0,0-5.85.71,45.06,45.06,0,0,0-5.42,2.6,51.42,51.42,0,0,0-4.76,3.58c-2.59,1.89-1.39,6.36,2,6.14,1.85-.12,3.64,0,5.49-.26a39.09,39.09,0,0,0,6.18-1.43,16.56,16.56,0,0,0,5-3.17c1.66-1.3,2.94-3.08,2.21-5.31S74,87,72,87.05Z" fill="#ffcd79"/><path d="M116.39,75.4a46,46,0,0,0-7.27,3.55c-2.07,1.31-3.93,2.89-5.91,4.32-2.15,1.55-1.17,5.36,1.7,5.12,2.48-.21,5-.22,7.41-.6a45.79,45.79,0,0,0,7.54-1.91,5.61,5.61,0,0,0,3.5-7C122.47,76.21,119.17,74.28,116.39,75.4Z" fill="#ffcd79"/><path d="M92,138.41a12.17,12.17,0,0,0-4,.12,18.24,18.24,0,0,0-2.88,1.06c-2.05.9-4.12,1.84-6.1,2.88-3.6,1.9-6.37,4.47-9.47,7.08-1.73,1.45-2.61,3.59-1.52,5.75a4.52,4.52,0,0,0,5.47,2.33c3.56-1.32,7.26-2.13,10.83-3.44,1.68-.62,3.32-1.3,5-1.89a20.79,20.79,0,0,0,3.81-1.54,5.29,5.29,0,0,0,2-1.49q-.71.18.33-.43C99.87,145.24,97.82,138.56,92,138.41Z" fill="#ffcd79"/><path d="M108.77,167.62c-5,3.3-8.19,9.08-11.69,14.2-1.14,1.66-1.44,3.7,0,5.31a4,4,0,0,0,5.27.72c2.42-1.83,5-3.41,7.29-5.36,1.37-1.14,2.68-2.35,4-3.58a17.74,17.74,0,0,0,3.14-4.24C119.67,169.79,113.16,164.74,108.77,167.62Z" fill="#ffcd79"/><path d="M138.58,192.65a6.23,6.23,0,0,0-8.21,2.72,37.83,37.83,0,0,0-3.11,8,18.74,18.74,0,0,0-.86,3.66c-.16,1.34-.07,2.62-.19,3.95-.3,3.28,3.25,5.36,5.74,2.88.91-.9,1.91-1.65,2.83-2.54a18.11,18.11,0,0,0,2.68-3.55,36.21,36.21,0,0,0,3.82-6.88C142.42,197.76,141.77,194.25,138.58,192.65Z" fill="#ffcd79"/><path d="M131.68,137.47c-3.95-.1-6.34,3.69-8.3,6.6-1.49,2.21-2.87,4.47-4.35,6.69-1.3,1.95-.16,4.9,1.62,6.06,2.14,1.39,4.41.87,6.22-.77s4-3.42,5.9-5.18c2.3-2.1,5.15-4.87,4.59-8.26C136.86,139.54,134.89,137.55,131.68,137.47Z" fill="#ffcd79"/><path d="M207.93,159.67a85.56,85.56,0,0,0-3.26,7.95c-.35,1.14-.61,2.31-.9,3.46a33.62,33.62,0,0,0-.67,4.32c-.4,3.36,1.33,7.06,5,7.68s6.63-1.52,7.68-5a46,46,0,0,0,1.67-7.76,85.57,85.57,0,0,0,.2-8.61C217.7,156.66,209.9,155,207.93,159.67Z" fill="#ffcd79"/><path d="M229.77,196.76a4.62,4.62,0,0,0-4.9,3.62c-.9,5.57-2.56,11.11-2.16,16.82a6.64,6.64,0,0,0,2.1,4.4c1.63,2.64,5.08,2.31,7.26.63a5.89,5.89,0,0,0,2.93-4.05c.78-5.8-.4-11.31-1-17.06A4.66,4.66,0,0,0,229.77,196.76Z" fill="#ffcd79"/><path d="M254.19,146.68c-1.61-3.08-3.67-5.77-5.5-8.71a4.22,4.22,0,0,0-5.37-1.42,4.31,4.31,0,0,0-2.18,5.11c.76,3.32,1.16,6.65,2.16,9.91a22.4,22.4,0,0,0,2.15,5.07,6.62,6.62,0,0,0,2.65,2.7q2.63.86.54.26a3.6,3.6,0,0,0,1.53.86c2,.73,4.35.35,5.39-1.79.21-.44,1.17-4,.58-2a7.64,7.64,0,0,0,.33-4.57A25.17,25.17,0,0,0,254.19,146.68Z" fill="#ffcd79"/><path d="M274.55,208.48a44.7,44.7,0,0,0-5.53-7c-3-3.38-9.44.87-7.52,5a39.31,39.31,0,0,1,2.27,6.86c.82,3.12,1.18,5.65,3.86,7.82s7.11,1.76,8.52-1.65a9.06,9.06,0,0,0,.57-6.59A22.76,22.76,0,0,0,274.55,208.48Z" fill="#ffcd79"/><path d="M311.18,165.34l-.89-1.29q.32,1.16-.73-1.39a17,17,0,0,0-2.87-2.94,57.62,57.62,0,0,0-5-4c-1.9-1.36-3.61-2.82-5.59-4-1.71-1-3.42-2-5.06-3.16a3.57,3.57,0,0,0-4.62,0,3.51,3.51,0,0,0-.63,4.58c1.22,1.72,2.27,3.48,3.38,5.26s2.63,3.54,3.94,5.36a63,63,0,0,0,4.6,5.54c1.78,1.95,3.82,3,6,4.5s5.45.4,7-1.36A6,6,0,0,0,311.18,165.34Z" fill="#ffcd79"/><path d="M337.14,51.44c-7.12-.51-14.06.61-21.14.83-4.8.15-5.48,7.6-.67,8.45,3.6.64,7.11,1.62,10.69,2.39a86.15,86.15,0,0,0,11.8,1.6c3.48.25,6.61-3.7,6.3-7C343.74,53.79,340.87,51.71,337.14,51.44Z" fill="#ffcd79"/><path d="M358.59,81.34c-2.74-1.6-5.86-2-9-2.24-2.93-.26-5.84-.57-8.75-1A4.31,4.31,0,0,0,339,86.54c2.64.81,5.24,1.71,7.82,2.66,3.16,1.16,6.29,2.28,9.66,2A5.24,5.24,0,0,0,358.59,81.34Z" fill="#ffcd79"/><path d="M325.73,93.77a34.64,34.64,0,0,0-9.54-2.7c-3.08-.33-6.08-.81-9.13-1.39-4.25-.8-6.74,5.45-2.57,7.33,5.85,2.64,11.19,6,17.51,7.39a5.67,5.67,0,0,0,6.49-3.69C329.32,98.2,328.38,94.86,325.73,93.77Z" fill="#ffcd79"/><path d="M353.73,117.61c-4.82-2.24-10.08-3-15.29-3.38-4-.31-6.18,6-2.89,8.28,4.31,2.95,8.88,5.67,14,6.94C356.53,131.18,360.26,120.65,353.73,117.61Z" fill="#ffcd79"/><path d="M117.66,44.29a46.78,46.78,0,0,0-9.39,1.86c-3,1.07-6.26,2.35-7.77,5.31a3.5,3.5,0,0,0,.81,4.17c5.36,3.63,12.77.63,18.23-1.35a5.13,5.13,0,0,0,3.38-5.8C122.45,46.19,120.22,43.92,117.66,44.29Z" fill="#fef9eb"/><path d="M153.77,55.87c-2.19-4.48-8.22-1.49-11.33.12-3.41,1.77-6.51,3.94-9.8,5.89-3.49,2.07-.67,7.71,3.12,6.38,3.49-1.22,7-2.17,10.49-3.57C149.53,63.36,156,60.48,153.77,55.87Z" fill="#fef9eb"/><path d="M131.87,114.5c-4.84,2-9.41,4.46-14,6.86-2,1.06-2.53,4.08-1.57,6a4.7,4.7,0,0,0,5.67,2.42c4.52-1.5,9-2.91,13.41-4.81,2.72-1.18,4.48-3.94,3.49-6.94C137.93,115.31,134.63,113.37,131.87,114.5Z" fill="#fef9eb"/><path d="M155.4,146.84a18.28,18.28,0,0,0-4.2,3.15,52.16,52.16,0,0,0-3.31,4.31c-1.83,2.65-3.39,5.46-5.21,8.12-3,4.35,2.3,9.25,6.22,5.48,2.39-2.29,4.95-4.37,7.34-6.66,1.13-1.09,2.17-2.3,3.23-3.46a16.24,16.24,0,0,0,2.74-4.95C164.07,148.66,159.42,144.16,155.4,146.84Z" fill="#fef9eb"/><path d="M172.64,108.68c-2.57-2.26-7-.08-9,2.06s-3.4,4.82-5,7.2c-1.4,2.07-1.63,4.74.42,6.54a4.74,4.74,0,0,0,6.54-.42,69.21,69.21,0,0,0,6.25-6.12,12.24,12.24,0,0,0,2-4.81A4.46,4.46,0,0,0,172.64,108.68Z" fill="#fef9eb"/><path d="M216.24,126.25a12,12,0,0,0-4.25,5,21.41,21.41,0,0,0-1.37,5,15,15,0,0,0,.27,6,8.59,8.59,0,0,1,.33,1.09,5,5,0,0,0,1.32,2.06c.22.52.53,1.23.64,1.42,1.54,2.89,6,1.57,6.61-1.27a6.63,6.63,0,0,1,.24-.77,3.77,3.77,0,0,0,.68-1.37q.29-1,.19-.43c.32-.81.59-1.63.86-2.46-.19.57.28-.83.5-1.47,0,.08.41-1,.44-1.07.25-.55.52-1.1.78-1.64a21.06,21.06,0,0,0,1.34-4.32C225.95,127.54,220.09,123.22,216.24,126.25Z" fill="#fef9eb"/><path d="M242.36,172.64a61.19,61.19,0,0,0-4.51-6.36,4.22,4.22,0,0,0-4.71-1.62c-1.58.52-3.11,2.36-2.81,4.11a69.2,69.2,0,0,0,1.53,8.56c.93,3.13,1.7,6.54,4.29,8.74a5.79,5.79,0,0,0,6.34.81c2.22-1.12,3.1-3,3.26-5.44C246,178.27,243.84,175.3,242.36,172.64Z" fill="#fef9eb"/><path d="M250.3,114.94a43.4,43.4,0,0,0-2-4.24c-.84-1.29-1.93-2.46-2.89-3.67-1.95-2.45-4.07-4.74-6.12-7.11-3.49-4-9.53-.18-6.95,4.64,1.53,2.87,3,5.78,4.63,8.58a42.56,42.56,0,0,0,2.44,4c1.09,1.45,2.59,2.71,3.81,4.06,1.57,1.74,4.68,1.41,6.27,0C251.34,119.44,251.41,117.12,250.3,114.94Z" fill="#fef9eb"/><path d="M284.4,181.05c-.17-.23-1-1.31-1.11-1.4l-.65-1.33q-.64-.75-1.3-1.48c-1-1-2.2-1.92-3.26-2.94a36,36,0,0,1-5.23-6c-2.9-4.33-9.47-.93-8.08,3.95a36.27,36.27,0,0,0,4.17,9.64,33.65,33.65,0,0,0,3.22,4.06c1.7,1.94,3.51,2.42,5.51,3.15,2.23.81,4.64.68,6.31-1.22A5.33,5.33,0,0,0,284.4,181.05Z" fill="#fef9eb"/><path d="M295.75,61.67a8.84,8.84,0,0,0-3.62-2.58,6.17,6.17,0,0,0-2.68-1.48c-.75-.2-1.54-.33-2.3-.49-1.8-.38-3.57-.74-5.39-1-3.73-.51-7.46-.43-11.21-.64s-4.63,5.47-1.44,6.85c2.78,1.19,5.44,2.61,8.27,3.68a67.71,67.71,0,0,0,8.92,2.65,17.48,17.48,0,0,0,4.86,0c2-.08,3.88-.61,4.86-2.52A4.48,4.48,0,0,0,295.75,61.67Z" fill="#fef9eb"/><path d="M297.06,81.74a35.17,35.17,0,0,0-6.59-3.13c-2-.67-4.13-1.14-6.2-1.74a4.57,4.57,0,0,0-5.26,3c-.78,2.35.28,4.31,2.24,5.62,1.74,1.16,3.4,2.44,5.19,3.53a31,31,0,0,0,5.72,2.49c2.77,1,5.91.42,7.34-2.43A5.56,5.56,0,0,0,297.06,81.74Z" fill="#fef9eb"/><path d="M363.31,96.41c-5.21-1.29-10.55-.75-15.87-.78s-5.52,7.73-.71,9c5.25,1.36,10.19,3.1,15.68,3.19,2.83,0,5.23-2.62,5.4-5.3A5.8,5.8,0,0,0,363.31,96.41Z" fill="#fef9eb"/><path d="M373.43,60.48a20.47,20.47,0,0,0-3.17-1.28,23.84,23.84,0,0,0-2.94-.31c-2.09-.21-4.18-.29-6.27-.44s-3.8,2-3.92,3.84a4.25,4.25,0,0,0,3.26,4.41c1.76.56,3.5,1.2,5.28,1.71a19.3,19.3,0,0,0,5.93.75C376.07,69.1,377.68,62.26,373.43,60.48Z" fill="#fef9eb"/>


    </symbol>
    <symbol xmlns="http://www.w3.org/2000/svg" viewBox="0 0 585.85 563.77" id="orange">
    <title>orange</title>
    <path d="M368.1,119.1a206,206,0,0,0-91.5-38.9c-31.8-5-66.7-3.6-95.3,12.6-19.3-1.6-39.6,3.4-56.9,10.5a176.1,176.1,0,0,0-55,36.2c-19.2,15.4-34.7,36.4-45.6,57.4C1.9,239.5-3.9,289,2.4,336.2,20.6,473.3,154.3,579.9,344.2,509.8a169.6,169.6,0,0,0,71.4-51C497.1,360.5,467.4,194.2,368.1,119.1Z" fill="#ff6712"/><path d="M315.2,312.1c-5.3,0-5.3,8.3,0,8.3S320.5,312.1,315.2,312.1Z" fill="#a9502c"/><path d="M388.3,221.8a4.1,4.1,0,0,0-7,0,4.2,4.2,0,0,0,0,4.1,6.6,6.6,0,0,0,2.1,2.9,2.7,2.7,0,0,0,2.8,0,6.7,6.7,0,0,0,2.1-2.9A4.2,4.2,0,0,0,388.3,221.8Z" fill="#a9502c"/><path d="M336.5,282.8c-4.6,0-4.6,7.2,0,7.2S341.2,282.8,336.5,282.8Z" fill="#a9502c"/><path d="M403.3,340.5c-7.2,0-7.2,11.2,0,11.2S410.5,340.5,403.3,340.5Z" fill="#a9502c"/><path d="M418.9,274.6c-6,0-6,9.3,0,9.3S425,274.6,418.9,274.6Z" fill="#a9502c"/><path d="M248.4,378.2c-4.4,0-4.4,6.8,0,6.8S252.8,378.2,248.4,378.2Z" fill="#a9502c"/><path d="M336.5,413.1c-5.2,0-5.2,8.1,0,8.1S341.8,413.1,336.5,413.1Z" fill="#a9502c"/><path d="M346.5,339.5c-6.6,0-6.6,10.3,0,10.3S353.1,339.5,346.5,339.5Z" fill="#a9502c"/><path d="M386.3,419.8c-3.9,0-3.9,6,0,6S390.1,419.8,386.3,419.8Z" fill="#a9502c"/><path d="M302.4,478.6c-5.1,0-5.1,7.9,0,7.9S307.5,478.6,302.4,478.6Z" fill="#a9502c"/><path d="M299.6,390.9c-4.5,0-4.5,6.9,0,6.9S304,390.9,299.6,390.9Z" fill="#a9502c"/><path d="M288.9,315.5c-.5-.5-1.5-.3-2.1-.3a2.4,2.4,0,0,0-2.2,1.5,2.4,2.4,0,0,0,.5,2.6,2.4,2.4,0,0,0,4.1-1.7C289.2,317,289.4,316,288.9,315.5Z" fill="#a9502c"/><path d="M315.2,236.5c-3.8,0-3.8,5.9,0,5.9S319,236.5,315.2,236.5Z" fill="#a9502c"/><path d="M274,260.9a1.3,1.3,0,0,0,0,2.5A1.3,1.3,0,0,0,274,260.9Z" fill="#a9502c"/><path d="M308.6,189.3a1.9,1.9,0,1,0,0,3.6c1-.3,2.2-.6,2.2-1.8S309.5,189.6,308.6,189.3Z" fill="#a9502c"/><path d="M356.4,231.5c-4.7,0-4.7,7.3,0,7.3S361.1,231.5,356.4,231.5Z" fill="#a9502c"/><path d="M367.8,281.6c-6.2,0-6.2,9.6,0,9.6S374,281.6,367.8,281.6Z" fill="#a9502c"/><path d="M346.5,181.6c-3.2,0-3.2,4.9,0,4.9S349.6,181.6,346.5,181.6Z" fill="#a9502c"/><path d="M305.2,145.9c-5.1,0-5.2,8,0,8S310.4,145.9,305.2,145.9Z" fill="#a9502c"/><path d="M376.3,377.4c-5.4,0-5.4,8.4,0,8.4S381.7,377.4,376.3,377.4Z" fill="#a9502c"/><path d="M431.7,340.8c-4.9,0-4.9,7.6,0,7.6S436.6,340.8,431.7,340.8Z" fill="#a9502c"/><path d="M349.3,474.2a1.2,1.2,0,0,0,0,2.4A1.2,1.2,0,0,0,349.3,474.2Z" fill="#a9502c"/><path d="M272.6,437a1.4,1.4,0,0,0,0,2.8A1.4,1.4,0,0,0,272.6,437Z" fill="#a9502c"/><path d="M256.9,496c-4.5,0-4.6,7.1,0,7.1S261.5,496,256.9,496Z" fill="#a9502c"/><path d="M227.1,442.3c-4.2,0-4.2,6.5,0,6.5S231.3,442.3,227.1,442.3Z" fill="#a9502c"/><path d="M269.7,397.1c-5.7,0-5.7,8.8,0,8.8S275.4,397.1,269.7,397.1Z" fill="#a9502c"/><path d="M242.7,335.8c-4,0-4,6.3,0,6.3S246.8,335.8,242.7,335.8Z" fill="#a9502c"/><path d="M218.7,267.8l-.5-.6a1.4,1.4,0,0,0-2,0l-.5.6c-1.2,1.3-.4,3.8,1.6,3.8A2.2,2.2,0,0,0,218.7,267.8Z" fill="#a9502c"/><path d="M231.3,200.7c-4.2,0-4.2,6.5,0,6.5S235.6,200.7,231.3,200.7Z" fill="#a9502c"/><path d="M252.7,286.4c-5.5,0-5.5,8.5,0,8.5S258.2,286.4,252.7,286.4Z" fill="#a9502c"/><path d="M382,312.3a5.3,5.3,0,1,0,5.3,5.3A5.4,5.4,0,0,0,382,312.3Z" fill="#a9502c"/><path d="M420.4,391.9c-6.9,0-6.9,10.7,0,10.7S427.2,391.9,420.4,391.9Z" fill="#a9502c"/><path d="M363.5,433c-5.1,0-5.2,8,0,8S368.7,433,363.5,433Z" fill="#a9502c"/><path d="M321.6,453.5l-.8-2a6.1,6.1,0,0,0-1.1-1.9,4.2,4.2,0,0,0-2.5-1.2,4.4,4.4,0,0,0-4.4,2.1,4.6,4.6,0,0,0,0,4.4,4.5,4.5,0,0,0,5,2l2.3-.6A2.3,2.3,0,0,0,321.6,453.5Z" fill="#a9502c"/><path d="M326.6,490.8c-5.7,0-5.8,8.9,0,8.9S332.3,490.8,326.6,490.8Z" fill="#a9502c"/><path d="M274.5,142.9a6.8,6.8,0,0,0-2.1-3.3,10.5,10.5,0,0,0-2.6-1.3,4.9,4.9,0,0,0-6,6,10.5,10.5,0,0,0,1.3,2.6,5.7,5.7,0,0,0,2.7,1.9l.6.2C271.8,150.3,275.7,146.3,274.5,142.9Z" fill="#a9502c"/><path d="M281.1,202.4c-3.8,0-3.8,5.9,0,5.9S284.9,202.4,281.1,202.4Z" fill="#a9502c"/><path d="M367.8,165.7a1.3,1.3,0,0,0,0,2.7A1.3,1.3,0,0,0,367.8,165.7Z" fill="#a9502c"/><path d="M409,197.2c-6.9,0-6.9,10.7,0,10.7S415.9,197.2,409,197.2Z" fill="#a9502c"/><path d="M427.5,240.6c-5.9,0-5.9,9.2,0,9.2S433.4,240.6,427.5,240.6Z" fill="#a9502c"/><path d="M389.1,257.6a1.8,1.8,0,0,0,0,3.6A1.8,1.8,0,0,0,389.1,257.6Z" fill="#a9502c"/><path d="M184.9,98.3A50,50,0,0,0,155,114.1a.9.9,0,0,0-.7,1.2c2.9,10.7,17.9,8.9,26.2,7.7s22.9-6.7,24.9-17.3S190.6,97.5,184.9,98.3Z" fill="#63812a"/><path d="M203.6,100.3c-5.9,8.5-12.8,14.5-23.2,16.6a36.7,36.7,0,0,1-14.1.2c-1.3-.3-7.1-1.3-7.6-2.6s.6-3.3.5-4.4a1.8,1.8,0,0,0-1.7-1.7c-5.7-.2-7.5,7.7-3.9,11.3s14.5,5.9,20.7,5.9c14.5-.1,30.6-8.6,36.2-22.4C212.1,99,205.8,97,203.6,100.3Z" fill="#8a9f85"/><path d="M128.2,198.2c-7-17.4-26.8-22.6-43-14.3s-29,28-37,44.7c-6.8,14.1-10.9,27.8-9.8,43.5,1,13.9,4,33.2,17.9,40.2,17.1,8.7,32.5-9,41.4-21.4a155.1,155.1,0,0,0,10.9-17.3c7.6-9,14.3-18.7,18.1-30C131.5,229.6,133.8,212.2,128.2,198.2Z" fill="#ff7e36"/><path d="M408.7,39.8c-32.4-3.7-63.2-16-94.1-25.7S253-3.6,221.6,1.6A100.7,100.7,0,0,0,188.2,13c-.5-4.2-2-8.8-6.5-10.1s-9.9,2.7-12.3,6.8c-7.1,12.1-5,29-3.5,42.2.8,7.4,1.8,14.8,3,22.2s2.5,13.3,3.6,20,.7,13.8,3.3,19.6c.7,1.6,3.3,1.5,4,0a15.7,15.7,0,0,0,1.2-3.7,4.6,4.6,0,0,0,7.2-3.5c1.2-18.9-6.1-38.2-3.4-56.8.9-5.9,2-12,2.8-18.2,30.2,19.2,57.7,43.1,91.9,54.9,30.4,10.5,65.5,6.9,94.2-7.3,15.3-7.5,29.4-18.3,38.8-32.7C414.5,43.4,411.8,40.2,408.7,39.8Z" fill="#4b6055"/><path d="M403.2,43.3c-8.9,2.8-17.5,5.8-26.8,6.8a106.5,106.5,0,0,1-14.8.5A53.6,53.6,0,0,0,379.5,45a.6.6,0,0,0-.5-1.1c-9.2,2.6-18.4,4.9-27.9,5.9h-.1a156.4,156.4,0,0,1-25.6-5.5c10.5.5,21-.6,30.5-5.3.8-.4.2-1.5-.6-1.3-11.6,2.2-23,4.9-34.7,5.2-7.9-2.5-15.8-5.4-23.5-8.3l-4.4-1.6c3-.3,6-.7,9-1.1,10-1.5,19.1-1.9,29.1,0,.7.1,1.3-.9.6-1.3-7.4-3.5-15.7-3-23.6-1.9-6.4.9-12.7,2.1-19.1,2.8-9.9-3.7-19.8-7.2-30-10,3-.4,6-1.1,9-1.8,9.5-2.2,18.4-3.5,28.1-1.4.8.2,1.3-.9.6-1.3-13.6-7-29.3.7-43.9,3l-9.1-1.9a134.2,134.2,0,0,0-19.9-2.1l2.6-1.1c10-4.2,19.2-6.6,30-6.1a.9.9,0,0,0,.2-1.8C243,2.6,229,10.1,215.8,15.9c-8.3.5-16.3,2.2-23.5,5.9-1,.5-.3,1.9.7,1.7l8.8-1.3h.3l3.4-.5a117.6,117.6,0,0,1,15.3-1.1,76.2,76.2,0,0,1,10.6,8.5c3.8,3.9,7.1,8.1,10.7,12.1,6.3,7.1,13.3,13.9,22.9,15.7a.9.9,0,0,0,.5-1.7c-10.4-4-17.8-12.1-24.9-20.3-4.1-4.7-8.8-10.5-14.4-14.2a145.3,145.3,0,0,1,24.8,3.8c4.6,1.1,9.2,2.4,13.8,3.8a93.7,93.7,0,0,0,17.4,26.7c7.6,8.2,17.5,16.5,28.5,19.7,1,.3,1.4-1,.7-1.6-9.3-6.6-18.8-12.1-26.9-20.3A100.7,100.7,0,0,1,267,29.1c10.6,3.4,21.1,7.3,31.5,11.1l.2.2c8.4,6.5,14.1,15.8,21.7,23.2,6,5.8,14.2,12.2,23,11.9a1.2,1.2,0,0,0,.3-2.3c-4.8-1.3-9.2-2.6-13.4-5.3A63.5,63.5,0,0,1,319.1,58c-5.5-5.8-10.6-11.6-16.9-16.5l2.4.9a251.6,251.6,0,0,0,35.3,10.1c8.5,8.8,19.9,18.6,32.8,16.8,1.2-.2,1.2-2.2,0-2.4-6.4-1-11.9-2.2-17.6-5.5a109.9,109.9,0,0,1-12.1-8.4c4.4.8,8.8,1.3,13.2,1.7a122.6,122.6,0,0,0,12.8.3c6.5,3.9,13.4,7.6,21.3,7.4a.8.8,0,0,0,.2-1.6c-6.1-2.4-12.7-3.5-18.8-5.8,11.6-.6,23.2-3.3,32.3-10C404.7,44.4,404.3,42.9,403.2,43.3Z" fill="#63812a"/>

    </symbol>


    <symbol
      xmlns="http://www.w3.org/2000/svg"
      
      viewBox="0 0 351 700"
      
      id="pineapple"
    >
      <title>pineapple</title>
      <path d="M268,467.1q-.6-4.2-1.5-8.4t-2.3-10.3q-.8-3.4-1.8-6.8-2.4-8.6-5.6-17.1l-.6-1.6-2.3-5.7q-1.3-3.2-2.8-6.4a149.7,149.7,0,0,0-19-32.5l-.6-.9-3-4a120.1,120.1,0,0,0-29-27q-3.3-2.2-6.9-4l-4.5-2.2a102.3,102.3,0,0,0-24.4-7.5l-7-1-5.4-.5h0l-3.7-.2H137a171.1,171.1,0,0,0-26.3,3.1H110l-4.2.9h-1.3l-5.5.2a87.3,87.3,0,0,0-39.8,13.2l-4.4,2.8a113.5,113.5,0,0,0-25.4,24c-2.1,2.8-4.1,5.6-6,8.5s-2,3.3-3,4.9C12.3,403.1,7.2,419,4.2,435.2q-.7,3.7-1.2,7.4A263,263,0,0,0,.4,470.3q-.1,1.1-.1,2.2Q0,480.8,0,489q0,6,.1,12.1t.3,10.6q.2,6.3.6,12.6c.4,8.3,1.1,16.6,1.9,24.9q.4,3.9.9,7.8t1.5,10.5q.9,6,2.1,11.9l.2,1a250.4,250.4,0,0,0,9.1,34.3q1.1,3.2,2.3,6.3t3.4,8.2a122,122,0,0,0,18.5,29.9l3.9,4.2,3.5,3.4c10.9,10,24.4,16.5,39.1,19.8l4.8.9a138.7,138.7,0,0,0,14.5,1.7,223.1,223.1,0,0,0,28.1-.2l6.7.8a167,167,0,0,0,19,.9l6.8-.3a110.2,110.2,0,0,0,35.1-7.9q3.8-1.6,7.5-3.5a79.4,79.4,0,0,0,10.1-6.4c9.2-6.8,15.9-15.6,21-25.3,1.3-2.4,2.5-4.9,3.6-7.4,2.1-4.6,3.8-9.3,5.4-14.1,3.9-11.4,7.2-23.1,10.1-34.9q1.1-4.3,2-8.6,2.1-9.3,3.8-18.6t2.6-16.6c1.3-9.9,2.2-19.9,2.6-29.9A258.3,258.3,0,0,0,268,467.1Z" fill="#c29d51"/><path d="M255.3,496.1l-1.8-2.4q6.4-11.2,12.4-22.6l2.1-4q-.6-4.2-1.5-8.4l-1.4,2.6q-7.5,13.8-15.5,27.4-11.1-14.5-22.8-28.6,10.6-13.1,21-26.3l2.4-3.1,1,1.2.2.2.2.2.8,1,1.8,2.3,6.5,8.3,3.5,4.6q-.8-3.4-1.8-6.8-2.4-8.6-5.6-17.1l-.9-1.1.3-.4-2.3-5.7-1.6,2-7.8-8.9q-11-12.3-22.8-24l9.7-8.8-3-4-7.7,6.9-2.5,2.3-3.1-3q-15.3-14.7-31.9-28.1l-.8-.7,10.3-8.3-4.5-2.2-3,2.4-6.4,5.2c-6.2-4.9-12.6-9.5-19-14.1l-2.9-2.1-2.8-1.9-2.1-1.4-3.3-2.2-3.5-2.4-.9-.6c-.8-.5-1.8.7-1,1.2l.7.6,5.8,4.8,1.7,1.4h0l4.2,3.6c6.4,5.5,12.6,11.1,18.8,16.7l-14.8,12.6-11.5,10.3-10-9.6c-6.5-6.1-13.1-12.1-19.8-18l7.2-5.1,3.5-2.5,1-.7,5.6-3.9,5.2-3.3a1.1,1.1,0,0,0,.5-.5.8.8,0,0,0,.1-.3,1,1,0,0,0-.4-.9,1.1,1.1,0,0,0-1.3-.2l-2.8,1.4c-4.7,2.4-9.3,4.8-13.8,7.4l-.6.4-4.8,2.9-3.2,2-10.1-8.7-5.5.2,11.6,11.1c-4.7,3.1-9.2,6.4-13.7,9.8q-9.9,7.4-19,15.5L69,360.5l-9.7-12.1-4.4,2.8,4.2,5.6c4.7,6.3,9.5,12.6,14.3,18.8q-7.2,6.6-14,13.6-10,10.2-19,21.3L33,398.9c-3.2-5-6.3-10.1-9.4-15.1-1,1.6-2,3.3-3,4.9,5,9.1,10.4,18.1,15.9,27q-4.6,5.9-8.9,11.9-7.6,10.5-14.2,21.6l-5.2-7.8-3.9-6.1q-.7,3.7-1.2,7.4l5.7,9,1.6,2.5q-4.4,7.5-8.4,15.3L.3,472.6Q0,480.8,0,489c1.6-3.7,3.3-7.4,5.2-11.2q4.3-8.8,9.1-17.3,7,10.8,14.3,21.4l10,14.4q-5.5,7.5-10.9,15.1T17.5,526.5l-6.3-9.2C7.4,512,3.8,506.5.1,501q.1,5.3.3,10.6l1.8,3q5.5,9,11.3,17.9l-4,6.2L2.9,549.1q.4,3.9.9,7.8l5.7-9.3,6.9-10.8.7,1Q29.8,557.3,43.7,576q-7.3,10.1-14.5,20.3l-4.8,6.9-3.7-6.5c-2.9-5.2-5.7-10.4-8.3-15.7l-3.9-8a41,41,0,0,0-3.2-5.7L4,565.9a.3.3,0,0,0-.5.2A24,24,0,0,0,5,573.6a71.4,71.4,0,0,0,2.5,6.7l.3.6q3.2,7.4,6.9,14.7c2.1,4.1,4.3,8.1,6.7,12l-4.7,7q1.1,3.2,2.3,6.3l5.5-8.2q3.3,5.2,6.8,10.2a259.6,259.6,0,0,0,20.3,25.5l-7.9,8-2.7,2.7,3.9,4.2,10.6-10.8q9.1,9.7,19.3,18.5,6.9,5.9,14.1,11.5l1.6,1.2-.3.2-2.7,2.5,4.8.9a138.7,138.7,0,0,0,14.5,1.7c-2-1.6-4.1-3.2-6.3-4.7q7.5-6.9,14.8-14l4-3.9,1.9,2.1q9.6,10.3,19.5,20.3l.7.7a167,167,0,0,0,19,.9q12.2-12.3,23.8-25.2l11.4,10.8,6.6,6.1q3.8-1.6,7.5-3.5l-1.9-1.8q-9.4-8.6-18.5-17.4l7.5-8.7q10.2-12,19.7-24.5l2.3,2c7.2,6.3,14.4,12.7,22,18.7,1.3-2.4,2.5-4.9,3.6-7.4l-13-10.8-10.2-8.8q6.4-8.6,12.6-17.4,7.9-11.4,15.3-23.1c3.5,3.8,7.1,7.5,10.8,11.2q1.1-4.3,2-8.6l-8.7-9.1q6.3-10.3,12.3-20.9l2.8-5.1c1.3-9.9,2.2-19.9,2.6-29.9Q263.2,506.6,255.3,496.1Zm-11.8-1.4,1.4,1.8q-12.4,20.4-25.9,40.1-14.6-15.9-29-31.9,15.9-18.8,31.4-37.9C228.9,475.9,236.2,485.2,243.5,494.7Zm-73.7-1.8,11.6,13.2-6,7q-14.6,17-29.5,33.8-19.7-21.2-38-43.6,10.6-12.4,21.6-24.6L144,463Q156.8,478,169.8,492.9ZM149,457.7q17-18,34.6-35.4,12.1,13.6,23.9,27.6l10.4,12.5q-15.6,19.1-31.7,38l-5-5.7Q164.9,476.4,149,457.7Zm-16.5,10q-14.2,15.5-27.9,31.4l-5.8-7.3q-12.8-16.1-24.9-32.8,16.7-20,34.7-39l15.8,19.4q8,9.8,16.2,19.4ZM86.9,488.5q6.3,8.2,12.8,16.3Q89,517.5,78.6,530.4l-3.3,4.2q-15.4-19.4-29.9-39.3,10.3-13.8,21.1-27.2l2.8-3.4Q77.8,476.7,86.9,488.5ZM109.7,587q-12.9,14-25.9,27.8c-8.2-9.9-16.2-19.9-24.1-30.1l-8-10.5q11.1-15.1,22.7-29.8Q91.5,566.1,109.7,587ZM83,544.3l-4.3-5.3q12-15.1,24.5-29.9,16.1,19.8,33.2,38.8l4.4,4.9-17,18.9-9.3,10.2Q98.4,563.3,83,544.3Zm38.9,38q11.5-12.6,22.9-25.4,16.3,17.5,33.5,34.2-6.5,8-13.3,15.9t-13.3,15.1q-10.8-11.3-21.4-22.8L118.4,586Zm28-31.1q12-13.5,23.8-27.2l11.6-13.6q14.6,16.4,29.5,32.5l-6.1,8.5q-12.3,17.1-25.5,33.6Q166.1,568.4,149.8,551.1Zm66-159.3q9.6,10,18.8,20.4c4.1,4.7,8.1,9.4,12.1,14.2Q236,440.1,225,453.6l-1.8,2.2-4.8-5.7q-14.3-16.9-29.3-33.2Q202.4,404.1,215.9,391.8ZM157,372.9q10.3-9.2,20.8-18.2,14.3,13,27.9,26.7l6.6,6.7q-11.1,10-21.8,20.3l-4.8,4.6-6.1-6.5q-13.8-14.6-28.1-28.6Zm12,33.3,11.1,12.2q-17.7,17.3-34.6,35.2l-10.1-12-22.2-26.5q16.2-16.8,33.3-32.7Q157.9,394.2,169,406.2ZM95.9,364.1c5.9-4.9,12-9.7,18.3-14.2l14.3,14.2,14.7,15q-16.1,15-31.4,30.8l-1.6,1.7q-9.8-11.8-19.4-23.7l-9.1-11.3Q88.6,370.2,95.9,364.1ZM60,398q8.3-9,17.2-17.3l3.2,4q12.5,16,25.1,31.7-17.9,18.9-34.6,38.8Q62.2,443,53.7,430.6l-9.5-14.3C49.3,410.1,54.5,404,60,398Zm-42,58.3-.7-1.1q5.8-9.9,12.4-19.4,5-7.3,10.4-14.3l3.1,4.9q11.2,17.3,23.1,34.2-12.4,15-24,30.6l-3.5-4.9Q28.2,471.5,18.1,456.3Zm8.9,83.9-6.5-9.4,6.9-10.2q7-10.2,14.3-20.1Q55.8,520.5,71,540q-11.6,14.7-22.6,29.7Q37.4,555,26.9,540.2ZM55.1,644.6a262.7,262.7,0,0,1-27.6-36.4l.5-.7q9.4-13.6,19.1-27l2,2.6Q63.3,602,78.5,620.3l-7.8,8.2Zm39.2,35.5h-.1q-6.5-4.8-12.7-10A267.2,267.2,0,0,1,59,648.8l9.3-9.6,13.9-14.5,1.9,2.2q14.7,17.4,30.2,34.3Q104.4,670.8,94.3,680.1Zm25.3-24.2q-13-14.1-25.4-28.6l-6.8-8q13.1-13.8,26-27.8l5.2,5.9q13.7,15.4,28,30.4Q133.5,642.1,119.6,655.9Zm36,28.5-4.4,4.4-.3-.3c-6.5-6.6-13.1-13.3-19.5-20l-6.9-7.3q13.9-13.8,27.1-28.3,8.6,9,17.5,17.8l9.5,9.3Q167.4,672.4,155.6,684.3Zm49.2-55.4-9,11.1q-6,7.2-12.1,14.2l-2.4-2.4q-12.5-12.1-24.6-24.6l7.9-8.9q9.6-11,18.8-22.4l6.7,6.4q10.2,9.6,20.7,18.9ZM231.4,593q-7.7,11.2-15.9,22.1l-12.9-11.7-14.4-13.5q11-13.8,21.3-28.1,5-6.9,9.9-14l21.5,23,3.1,3.3Q237.8,583.6,231.4,593Zm31.5-50.5q-7.1,12.7-14.9,25.1l-19.6-20.9-4.8-5.1q13.1-19.3,24.9-39.4l.3-.5q6.1,8.1,12.1,16.3l8.8,12.1Z" fill="#ffdc7c"/><path d="M169.6,250q15.5-14.9,29.6-30.9a526.4,526.4,0,0,0,48.1-63.5q12.2-18.9,22.6-38.7a1.5,1.5,0,0,0-1.7-2.1l-3,.8a144.2,144.2,0,0,0-77.7,55.7h0q-3.5,5.1-6.6,10.4l-1.7,3.1.4-1.8q3.5-15.8,6.2-31.7a559.5,559.5,0,0,0,7.2-73q.7-20.7-.2-41.3a1.5,1.5,0,0,0-2.5-1l-3.7,4.4h0c-13.8,17.2-23.2,37.1-29.1,57.9a247.6,247.6,0,0,0-8.5,48.8h0q-.6,7.2-.9,14.4-2.1-14.2-5.4-28.2c-6.6-29.1-16.3-57.5-27-85.4-6-15.8-12.4-31.5-18.7-47.2-.4-1-2.2-1.3-2.5,0q-1.1,5-1.9,9.9h0C88,39.2,89.3,68.2,93.7,96.5c4.9,31.8,13.7,62.9,22,94.1l.4,1.6c2.4,9,4.7,17.9,6.9,27a486.1,486.1,0,0,0-19.4-46.5,494.3,494.3,0,0,0-39.6-68.1Q51.6,86.4,37.4,69.4a1.1,1.1,0,0,0-1.8.2,1.3,1.3,0,0,0-.3.6c-3.7,26.9,6,53.3,18.3,77.1s28.1,46.5,38.3,71.5a144.2,144.2,0,0,1,6,17.8,107.7,107.7,0,0,1,3.5,21.9l-.8-1.2h0L82.1,229.4,50.7,182.3c-4.9-7.4-9.8-14.9-14.6-22.4a1.1,1.1,0,0,0-2.1.4h0c-1.4,39.4,20.1,75.6,44,106.4,3.3,4.2,6.7,8.4,10.1,12.6l5,6.1h0A311.8,311.8,0,0,0,41.8,255q-8.9-4.2-18.1-7.9c-1-.4-1.8.7-1.6,1.5s.4,1.7.6,2.6c4.1,14.4,16.2,25.3,28.9,33.4,14.7,9.4,31.7,16.6,43.7,29.2l1.1,1.2c6.2,6.9,11.1,14.8,11.9,23.9a.6.6,0,0,0,.4.5l.4.4.5.3,2.3,1.2h0a55.5,55.5,0,0,0,8.5,3l3.7.9,1.8.4,3.7.6,2.5.3c3.8.3,7.9.6,11.4-.8a11.8,11.8,0,0,0,3.4-2.1c1.3-1.2,2.3-2.7,2.1-4.3l1.2-.6h0l2.4-1.3,2.2-1.4c5.3-3.4,10.1-7.4,14.9-11.3,2.3-1.8,4.7-3.7,7.1-5.4l4.6-3a96.7,96.7,0,0,1,20.1-9.2c10.2-3.4,20.8-5.5,31.3-7.7,1.6-.3,1.2-2.2,0-2.7h-.1c-15.3-5.7-31.9-6.3-48-3.7l-2.9.5c-3.7.7-7.4,1.5-11,2.5l-3.4,1a469.1,469.1,0,0,0,39.9-27.2q15.7-11.9,30.3-25.2c7.1-6.5,14.2-13,21-19.8a1.4,1.4,0,0,0-1-2.3h-2.2c-30.9.3-59.6,13.9-85.1,29.7l-2.4,1.5-4.9,3.1-3.3,2.2Z" fill="#4b6055"/><path d="M103.2,275.5c-3.9-4.5-7-9.8-10.2-14.7s-5.9-9.8-8.9-14.7L66.3,216.6,48.5,187.2c-3.1-5.1-6.2-10.2-9.2-15.3A95.6,95.6,0,0,1,34,160.3a1.1,1.1,0,0,1,2.1-.4c4.9,7.5,9.7,15,14.6,22.4l31.4,47.1,8.8,14.3c3,4.9,6.2,9.7,9,14.7s5.7,9.5,7.7,14.6C108.4,275.3,104.8,277.3,103.2,275.5Z" fill="#254a2b" opacity="0.44" style="mix-blend-mode:multiply"/><path d="M104.5,296.9c-4.2-.7-8.3-3.9-11.9-6s-7.7-4.3-11.6-6.4c-7.8-4.1-15.4-8.8-23-13.1L34.2,258.2c-3.9-2.2-7.6-4.5-11.3-6.9h-.2c-.2-.8-.4-1.7-.6-2.6s.6-1.9,1.6-1.5q9.2,3.6,18.1,7.9a311.3,311.3,0,0,1,51.4,30.7l-5.1-6.2,9.5,6c3.4,2.2,7.8,4.3,10.1,7.6S106.7,297.3,104.5,296.9Z" fill="#254a2b" opacity="0.44" style="mix-blend-mode:multiply"/><path d="M127.9,233.3a1.7,1.7,0,0,1-3.2.8c-4.1-6.1-5.8-13.8-8.4-20.5s-5.6-14.3-8.7-21.3C96.4,167.6,82.6,144.4,68,121.5c-7.7-12-15.6-23.8-23-36-3.2-5.3-6.5-10.6-9.4-16a1.1,1.1,0,0,1,1.8-.2q14.2,17,26.7,35.1a494.3,494.3,0,0,1,39.6,68.1A486.1,486.1,0,0,1,123,219.1c-2.2-9-4.5-18-6.9-27l-.4-1.6,2,4.7c2.5,6.1,4.8,12.3,6.8,18.6S128.5,226.9,127.9,233.3Z" fill="#254a2b" opacity="0.44" style="mix-blend-mode:multiply"/><path d="M150.3,170.5c-.1,1.7-.8,3.2-.8,4.9a2,2,0,0,1-3.9.5c-.6-2-1.7-3.7-2.3-5.7-8.3-29.4-5.3-59.1-32.9-118-5.7-12.1-11.5-24.1-16.1-36.6l-1.7-4.8h0q.8-5,1.9-9.9c.3-1.3,2.1-1,2.5,0,6.4,15.7,12.7,31.4,18.7,47.2,10.7,28,20.4,56.3,27,85.4q3.2,14,5.4,28.2.3-7.2.9-14.4c.3,2.4.5,4.9.7,7.4s.5,6.9.5,10.3C150.3,166.8,150.4,168.7,150.3,170.5Z" fill="#254a2b" opacity="0.44" style="mix-blend-mode:multiply"/><path d="M185.8,151.4c-1.9,11.7-11.7,65.1-18.4,75.6a2.2,2.2,0,0,1-4.1-1.6c3.1-15,6.9-29.9,9.9-44.9,5.2-26.5,7.5-53.5,8.9-80.4.7-13.8,1.2-27.5,2.7-41.2.7-6.1,1.3-12.1,1.8-18.2h0l3.7-4.4a1.5,1.5,0,0,1,2.5,1q.9,20.6.2,41.3A559.5,559.5,0,0,1,185.8,151.4Z" fill="#254a2b" opacity="0.44" style="mix-blend-mode:multiply"/><path d="M270,116.9q-10.4,19.8-22.6,38.7a526.4,526.4,0,0,1-48.1,63.5,533.9,533.9,0,0,1-39,39.8l3.3-2.2,7.3-4.6c-4.2,3.8-8.8,8.1-14.1,9.8-3.7,1.2-6.3-2.9-4.7-5.8s5-5.6,7.8-8.1l8.4-7.7q8.3-7.7,16.2-15.9a486.1,486.1,0,0,0,49.5-61c7.5-10.8,14.4-21.9,21.7-32.8,3.3-4.9,6.6-9.8,9.7-14.9l3-.8A1.5,1.5,0,0,1,270,116.9Z" fill="#254a2b" opacity="0.44" style="mix-blend-mode:multiply"/><path d="M259.1,224.7c-6.8,6.8-13.9,13.3-21,19.8q-14.5,13.2-30.3,25.2l3-.2c1.5-.1,1.7,1.8.7,2.5q-7.8,5.6-15.2,11.6l-1.6,1.3-12.5,8.6-10,6.6c-4.3,2.8-8.6,5.6-13.2,8s-9,5.5-14.2,7.2-6.3-3.6-3.7-6.1c4.1-4.1,9.5-7.2,14.3-10.5l14.8-10q12-8.2,23.6-16.8,13.3-9.8,26.1-20.2c8-6.4,16.1-12.7,23.9-19.3l11.9-10h2.2A1.4,1.4,0,0,1,259.1,224.7Z" fill="#254a2b" opacity="0.44" style="mix-blend-mode:multiply"/><path d="M233.2,299.4c-10.5,2.1-21.1,4.3-31.3,7.7a96.7,96.7,0,0,0-20.1,9.2l6.9-.3a171.4,171.4,0,0,0-18.5,8.8l-2.2,1.2c-3.8,2.2-7.5,4.5-11.4,6.6a59.7,59.7,0,0,0-5.6,3.6l-2,1.4-1.9,1.1-1.6.7a3.6,3.6,0,0,1-4-.9l-.2-.3a2.2,2.2,0,0,1-.3-.8,2.4,2.4,0,0,1,.5-1.9,19.6,19.6,0,0,1,2.1-2.5l1.2-1.1c2.3-2.1,4.9-3.9,7.2-5.9s2.7-2.2,4.2-3.2,4.7-3,7.1-4.4a166.7,166.7,0,0,1,24.9-11.7,170.8,170.8,0,0,1,27.2-7.6,129,129,0,0,1,13.8-2l4-.3h.1C234.4,297.2,234.8,299.1,233.2,299.4Z" fill="#254a2b" opacity="0.44" style="mix-blend-mode:multiply"/><path d="M227.5,322.2a86.6,86.6,0,0,0-36.5-7.6h0l-7.2.4A87.9,87.9,0,0,0,164,319q-3.6,1.2-7.1,2.7l-2.4,1.1a376,376,0,0,1,32.6-32.2q5-4.3,10.1-8.5l1.6-1.3q7.8-6.3,15.9-12.1c1-.7.9-2.7-.7-2.6l-3.2.2a108,108,0,0,0-52.6,19.1q-3.4,2.4-6.6,5a295,295,0,0,0,17.1-38.5l.9-2.4c3.1-8.6,18.3-60.2,16.2-72.9-.9-5.4-44.9,38.8-50,96.7-.3,3.9-.5,7.8-.6,11.8v-.4a178.3,178.3,0,0,0-5.8-19.1,192.8,192.8,0,0,0-17.4-35.7,196.4,196.4,0,0,0-13-18.4,1.6,1.6,0,0,0-2.9.7,138.2,138.2,0,0,0-.1,19.4A167.4,167.4,0,0,0,99,253.4h0c.5,2.4,1,4.7,1.5,7a265.6,265.6,0,0,0,8.9,29.3,72.5,72.5,0,0,0-4.9-5.6,60.7,60.7,0,0,0-12.1-9.7c-1-.6-2.8.2-2.6,1.4s.7,4.8,1.2,7.1h0a130.5,130.5,0,0,0,12.2,35.1,89.8,89.8,0,0,0-9.9-5.6c-18.1-8.9-52.9-21-73.5-9.6a1.4,1.4,0,0,0,.3,2.5c2.3.7,4.7.4,7.1.5a43.7,43.7,0,0,1,7.8,1.1,68.8,68.8,0,0,1,14.4,5.7c9.1,4.6,17.4,10.2,25.9,15.7s16.8,10.7,26.1,14.4a67.9,67.9,0,0,0,14.6,4.3,26.7,26.7,0,0,0,8.3.1c17.8,3.3,31.8-7.1,76.3-17.9a151.8,151.8,0,0,1,25.8-4.3C228.2,325.1,229.1,322.9,227.5,322.2Z" fill="#8ba68b"/>

    </symbol>
    <symbol
      xmlns="http://www.w3.org/2000/svg"
      viewBox="0 0 383.1 474.2"
      id="strawberry"
    >
      <title>strawberry</title>
      <path d="M361.3,272.5c4.2-39.3-11.2-79.4-33-111.4s-53.3-60-89.8-73.4C209.8,67,172.6,56.8,137.8,59.1a140.8,140.8,0,0,0-97.1,48.1C12.3,140,2.2,183.2.4,225.5A426.9,426.9,0,0,0,3,292.3c2.5,22.3,5.3,44.5,9.2,66.6,6.9,38.3,13.2,85.3,51.5,105.4s81.6,6.4,117.7-10.8a494,494,0,0,0,110.2-72.6C324.3,352.6,356.5,317.3,361.3,272.5Z" fill="#e55049"/><path d="M382.1,183.9c-24.6-43.6-65.4-77.4-111.9-95.7a224.1,224.1,0,0,0-24.2-8l1.6-2.8a118.1,118.1,0,0,1,17.7-23.5,78.1,78.1,0,0,1,19-13.9c3.6-1.9,7.3-3.7,11-5.3s7.9-3.7,12.2-4.2c2.6-.3,3.4-4.3.5-4.8s-8.8-2-13.2-1.9A43.8,43.8,0,0,0,281,26.3c-9,3.2-17,8.8-24,15.1s-14.7,16.2-20.4,25.4c-1.5,2.4-2.8,4.8-4.1,7.3h-.6c-1.6-2.4-3.2-4.9-5-7.2-4.2-5.8-10.7-10.6-16.4-15-11.3-8.7-22.1-17.5-34.6-24.6a201.1,201.1,0,0,0-37.9-16.7C124.5,6.3,110.6,4,96.5,1.9a183.5,183.5,0,0,0-46.8-.8,2.7,2.7,0,0,0-1.2,5,596.7,596.7,0,0,0,80.8,47.5l4,1.9-4.4-.4C102.1,53,71.3,57.3,49.6,74.6A89.7,89.7,0,0,0,33.9,90.4c-4.8,6.3-7.8,12.8-11.1,19.8a3.5,3.5,0,0,0,3.1,5.1,505.7,505.7,0,0,0,157-16.5l4.2-1.2a178,178,0,0,0-61.4,76.7,171.7,171.7,0,0,0-11,38.9,4.5,4.5,0,0,0,7.5,4.1,467.7,467.7,0,0,0,91.1-107.5c-1.5,6-3.2,11.9-5.1,17.7-4.5,14.1-10.5,27.8-14.9,42-7.1,22.6-11.4,49.2-5.5,72.5a77.2,77.2,0,0,0,19.4,34.5,5.3,5.3,0,0,0,7.4-.1c17.7-21.1,29.9-45.5,33.7-73a139.1,139.1,0,0,0-.1-39.3c12.5,26.2,29.1,51.1,53.6,67.3,4,2.7,10.3-1.2,9.7-6-2.5-22.2-7.3-44.5-16-65.1a207.4,207.4,0,0,0-12.5-24.8q5.9,5,12,9.8a427.7,427.7,0,0,0,77.7,48.4A7,7,0,0,0,382.1,183.9Z" fill="#4b6055"/><path d="M65.5,165.8c.9-2.5,2.1-8.3-1.7-9.3s-6.6,2.8-8.4,5.4a22.6,22.6,0,0,0-2.5,5.3c-.8,2.2-1.9,4-1.5,6.4a4,4,0,0,0,6,3.2c2.2-1,3.1-2.9,4.5-4.8A22.8,22.8,0,0,0,65.5,165.8Z" fill="#fef9eb"/><path d="M68.4,286.7c.4-2.3-.3-4.7-.7-7a3.4,3.4,0,0,0-6.8.2c-.2,2.3-.7,4.7-.2,7a11.3,11.3,0,0,0,2.7,5.5,1.9,1.9,0,0,0,2.7-.1A11.4,11.4,0,0,0,68.4,286.7Z" fill="#fef9eb"/><path d="M38.6,214.1c.4-2.3-.3-4.7-.7-7a3.4,3.4,0,0,0-6.8.2c-.2,2.3-.7,4.7-.2,7a11.3,11.3,0,0,0,2.7,5.5,1.9,1.9,0,0,0,2.7-.1A11.4,11.4,0,0,0,38.6,214.1Z" fill="#fef9eb"/><path d="M94.5,238.1c.5-3-.4-5.9-.9-8.8-.8-5.5-8.2-5.3-8.6.3-.2,2.9-.9,5.9-.2,8.9s1.6,5.3,3.4,6.9a2.5,2.5,0,0,0,3.4-.1C93.2,243.5,94,240.5,94.5,238.1Z" fill="#fef9eb"/><path d="M130.5,273.7c1.1-2.8.8-5.9,1-8.8.4-5.5-6.8-6.9-8.5-1.6-.8,2.8-2.2,5.6-2.1,8.6s.4,5.5,1.8,7.5a2.5,2.5,0,0,0,3.4.7C128.2,278.7,129.6,276,130.5,273.7Z" fill="#fef9eb"/><path d="M45.1,343.7c1.1-2.8.7-5.9.9-8.8.3-5.5-7-6.8-8.5-1.4-.8,2.8-2.1,5.6-2,8.6s.5,5.5,2,7.5a2.5,2.5,0,0,0,3.4.6C42.9,348.7,44.3,346,45.1,343.7Z" fill="#fef9eb"/><path d="M26.6,280.8a26.2,26.2,0,0,0,1-17.6,3.3,3.3,0,0,0-6.4.2,26.2,26.2,0,0,0,2.1,17.5A1.9,1.9,0,0,0,26.6,280.8Z" fill="#fef9eb"/><path d="M118,316.1c.2-2.7.3-5.4.5-8.1.3-4.8-7.4-5.4-8.3-.8-.5,2.5-1.1,5-1.6,7.5a11.2,11.2,0,0,0,1.6,7.5c.8,1.1,2.6,2,3.9,1A11.1,11.1,0,0,0,118,316.1Z" fill="#fef9eb"/><path d="M94.2,331.4c0-3.9-6.6-4.7-7-.7s-2,11.4.7,16.5c.9,1.8,3.3,1.3,4.2-.1C95,342.5,94.2,336.6,94.2,331.4Z" fill="#fef9eb"/><path d="M72.5,376.5c-.3-3.2-.6-6.4-1-9.5a3.4,3.4,0,0,0-3.5-3.2,3.4,3.4,0,0,0-3.2,3.5c.2,3.2.4,6.4.7,9.6a3.5,3.5,0,0,0,1.8,3,3.3,3.3,0,0,0,3.5-.1A3.5,3.5,0,0,0,72.5,376.5Z" fill="#fef9eb"/><path d="M50,385.5l-1.6-9.2c-.8-4.7-8.5-3.3-8.2,1.3s-.6,13.4,4.2,17.6a2.7,2.7,0,0,0,4.1-.6C50.3,392,50.5,388.4,50,385.5Z" fill="#fef9eb"/><path d="M135.1,354.7c.7-2,1.3-4.2,1.9-6.2a3.8,3.8,0,0,0-2.8-4.5c-2.2-.5-3.8.9-4.5,2.8s-1.4,3.8-2,5.7-1.4,4.1-.1,6.1a3.2,3.2,0,0,0,3.6,1.4C133.8,359,134.3,357,135.1,354.7Z" fill="#fef9eb"/><path d="M107.5,386.8a43.7,43.7,0,0,0,2-6.9c1.2-5.1-6.5-6.8-7.9-1.8a43.3,43.3,0,0,0-1.6,7c-.3,2.5-1,4.4.1,6.7a2.9,2.9,0,0,0,3.9,1C106.3,391.2,106.5,389.1,107.5,386.8Z" fill="#fef9eb"/><path d="M85.1,409.1c1-5.6-7.1-7.5-8.6-2s-4.7,12.2-2.2,17.3c.8,1.7,3.7,2.4,5.2,1.3C84,422,84.1,414.5,85.1,409.1Z" fill="#fef9eb"/><path d="M116.3,148.5c.6-2.1,1.7-4,2.2-6.1s-2.4-5.1-4.8-3.4-3.7,4.4-4.7,7.1-1.6,6,.6,8.1a3.1,3.1,0,0,0,3.7.4C115.4,153.2,115.7,150.7,116.3,148.5Z" fill="#fef9eb"/><path d="M173,196.6c.6-1.7,1-3.6,1.4-5.3.8-3.7-3.6-5.6-6.2-3.3s-4.7,11.2.1,13.4a2.7,2.7,0,0,0,3.1-.5A6.7,6.7,0,0,0,173,196.6Z" fill="#fef9eb"/><path d="M170.2,260c.8-2.2,1.2-4.5,1.9-6.7a4.7,4.7,0,0,0-1.3-4.5,4.3,4.3,0,0,0-3.1-1.3h-.3c-2.3.1-3.8,1.7-4.5,3.7s-1.8,5.1-1.7,7.8a8.4,8.4,0,0,0,1.3,3.7c.8,1.5-.5-.7.1.5a8,8,0,0,0,1,1.4c.9,1.1,2.6.7,3.6-.1a3.2,3.2,0,0,0,1-1.1q-1.1.6.4-.4A8,8,0,0,0,170.2,260Z" fill="#fef9eb"/><path d="M191.3,297.7c.9-4.2-5.3-6.8-7.3-2.7s-6.5,11.3-.7,13.6S190.5,301.4,191.3,297.7Z" fill="#fef9eb"/><path d="M198.6,340.9a4.7,4.7,0,0,0-1.8-6.2c-2.4-1.3-4.8-.2-6.2,1.8l-2.6,3.9a9,9,0,0,0-2.9,6.9c.1,2.2.8,4.5,3.5,4.6C194.3,352.3,196.4,345,198.6,340.9Z" fill="#fef9eb"/><path d="M177.5,376a5.3,5.3,0,0,0-2.1-7c-2.3-1.2-5.9-.5-7,2.1s-3.9,5.8-3.9,9l-.5,1.5c-.7,2.2,1.9,4.7,4.1,3.9l1.8-.8C173.8,384.2,176.1,379.1,177.5,376Z" fill="#fef9eb"/><path d="M136.5,392.2a4.9,4.9,0,0,0-6.5,1.9l-2.4,3.9a17.8,17.8,0,0,0-1.8,4.6c-1.2,4.1,4.2,6.3,6.9,3.7a18,18,0,0,0,3.3-3.8l2.4-3.8C139.9,396.5,138.7,393.4,136.5,392.2Z" fill="#fef9eb"/><path d="M154,417.5l-4.2,3.3a16.1,16.1,0,0,0-2.2,1.9,5,5,0,0,0-1.2,3.1,4.1,4.1,0,0,0-.3,1.8,2.5,2.5,0,0,0,1.9,2.3,4,4,0,0,0,1.7.1,5.1,5.1,0,0,0,3.3-.5,16.2,16.2,0,0,0,2.3-1.7l4.1-3.4C163.1,421.1,157.9,414.5,154,417.5Z" fill="#fef9eb"/><path d="M157.7,308.1a5.1,5.1,0,0,0-10-2.3,29.1,29.1,0,0,0-1,3.5,6.3,6.3,0,0,0,.4,3.8c-.1,1.9.2,3.9,2.3,4.7s3.9-.9,4.8-2.7S157,310.8,157.7,308.1Z" fill="#fef9eb"/><path d="M102.4,185.4a5.1,5.1,0,1,0-10-2.3,29.1,29.1,0,0,0-1,3.5,6.3,6.3,0,0,0,.4,3.8c-.1,1.9.2,3.9,2.3,4.7s3.9-.9,4.8-2.7S101.7,188.2,102.4,185.4Z" fill="#fef9eb"/><path d="M99.6,438.1a5.1,5.1,0,0,0-10-2.3,29.1,29.1,0,0,0-1,3.5,6.3,6.3,0,0,0,.4,3.8c-.1,1.9.2,3.9,2.3,4.7s3.9-.9,4.8-2.7S98.9,440.8,99.6,438.1Z" fill="#fef9eb"/><path d="M40.8,142.9a5.1,5.1,0,1,0-10-2.3,29.1,29.1,0,0,0-1,3.5,6.3,6.3,0,0,0,.4,3.8c-.1,1.9.2,3.9,2.3,4.7s3.9-.9,4.8-2.7S40,145.6,40.8,142.9Z" fill="#fef9eb"/><path d="M242,283.4a5.1,5.1,0,1,0-9.3-4.3,29.1,29.1,0,0,0-1.7,3.2,6.3,6.3,0,0,0-.4,3.8c-.5,1.8-.6,3.9,1.3,5s4-.1,5.3-1.7S240.7,286,242,283.4Z" fill="#fef9eb"/><path d="M62.6,214.8c-2.5,4.6-5.6,9.5-4.2,14.9.6,2.4,3.4,2.7,5.1,1.3,4.1-3.2,4.5-8.9,5.2-13.7S64.6,211.1,62.6,214.8Z" fill="#efa187"/><path d="M43.7,252.8c-.8,4-2.7,9-1.7,13s4,2.7,5.4.7,2.2-8.2,2.8-12S44.6,248.5,43.7,252.8Z" fill="#efa187"/><path d="M35.1,306.4c-.5-3.5-5.8-3.8-5.7,0s0,5.1.1,7.6a9.7,9.7,0,0,0,2.4,6,1.8,1.8,0,0,0,2.8-.4C37.2,315.5,35.7,311,35.1,306.4Z" fill="#efa187"/><path d="M87.5,277.4l-2.7,7.5c-1,2.6-2,5.2-.5,7.7s3,2,4.7,1.2,3.3-4.2,4-6.7l2.3-7.6C96.7,274.6,89.3,272.7,87.5,277.4Z" fill="#efa187"/><path d="M70.7,326.3c-2.4-.5-4.1.7-5,2.8s-2.4,4.6-1.5,7.1a3.5,3.5,0,0,0,5,2c2.6-1.3,3.2-4.5,4.2-7.1S72.7,326.7,70.7,326.3Z" fill="#efa187"/><path d="M208.4,298.5l-3.7,8.5c-1.1,2.5-2.2,5.7-1.5,8.5s3.3,2.6,5,1.3,3.1-4.9,3.9-7.3,1.6-5.6,2.4-8.4S209.9,295,208.4,298.5Z" fill="#efa187"/><path d="M229,331.6c-1.7,2.8-3.6,5.6-5.3,8.4s-2.8,6-2.7,8.8,2.4,3.7,4.2,2.4c5.5-3.8,7.3-11.3,9.8-17.2C236.5,330.6,230.9,328.5,229,331.6Z" fill="#efa187"/><path d="M196.2,377.3a3.6,3.6,0,0,0-5,0l-2.9,2.9-1.3,1.3a7.4,7.4,0,0,0-1.4,2.7,3,3,0,0,0,3.6,3.6,7.9,7.9,0,0,0,2.5-1.2l1.5-1.4,2.9-2.9A3.6,3.6,0,0,0,196.2,377.3Z" fill="#efa187"/><path d="M120.6,429.7A31.8,31.8,0,0,0,115,437a1.4,1.4,0,0,0,1.9,1.9,31.8,31.8,0,0,0,7.2-5.7C126.4,431,122.8,427.5,120.6,429.7Z" fill="#efa187"/><path d="M195.7,412.8a27.9,27.9,0,0,1-7.4,5.6c-2.5,1.3-5.7,2.1-7.8,4a2.6,2.6,0,0,0,1.1,4.4c6.6,1.6,14.4-5.1,18.3-9.7C202.3,414.2,198.4,410,195.7,412.8Z" fill="#efa187"/><path d="M243.3,370c-2.1,1.2-4.6,2.2-6.5,3.8s-4.3,2.8-4.7,5.2a3.2,3.2,0,0,0,2.1,3.8c2.3.8,4.6-.8,6.8-1.6s4.4-2.6,6.4-3.9C251.9,374.3,248,367.5,243.3,370Z" fill="#efa187"/>
    </symbol>

<symbol xmlns="http://www.w3.org/2000/svg" viewBox="0 0 370.9 416" id="kiwi">
<title>kiwi</title>
<path d="M366.3,209.4c-.4-7.5-1.1-15-1.9-22.5s-1.3-16.4-2.5-24.5a80.6,80.6,0,0,0-6.7-22.5,89.6,89.6,0,0,0-8.3-13.8c-3.9-8.2-5-20-9.8-27.7-5.8-9.3-12.5-17.4-18.7-26.3S302.6,57,295,48.7c-14.2-15.4-32.7-26.1-51.9-34.1q-6.7-2.8-13.6-5a263.8,263.8,0,0,0-35.3-3.9c-5.5-.3-11-1-16.5-1.4s-10.5.8-15.6,1.9a140.2,140.2,0,0,0-15.9,4.2c-4.8,1.7-9.6,3.6-14.3,5.5-25.5,9.9-43.7,6.8-86.4,54.4-5.2,5.8-21.9,33.4-30.8,55.8S2.8,165,2.7,190.8c-.1,21.8,3.5,43.4,9,64.4,2.7,10.4,5.9,20.7,9.3,30.9s6.6,19.4,11.2,28.6c8.6,17,21,32.9,36.6,44,4.2,3,8.6,5.7,12.9,8.6s7.9,5.7,11.8,8.6a104.5,104.5,0,0,0,12.1,8,118.6,118.6,0,0,0,13.9,6.2,228.5,228.5,0,0,0,60.2,14.2,250.6,250.6,0,0,0,31.3,1.2,195.4,195.4,0,0,0,30.3-2.6c18.4-3.4,33.7-14.3,48-25.7s30.3-24.2,43.1-38.9a143.8,143.8,0,0,0,17.2-24.1c5.2-9.4,8-19.4,10.5-29.8,1.7-7,3.5-13.9,5.2-20.9q.5-3.7.9-7.4C367.5,240.5,367.2,224.9,366.3,209.4Z" fill="#d2d48e"/><path d="M353.3,193.7a97.5,97.5,0,0,0-11.1.6l-11.1,1-21.8,2q-22,1.8-44.1,2.6l-12.7.4-6.1.2h-.7l-.3-.2-.8-.2c-1.5-.4-3.1-.4-4.7-.8a20.3,20.3,0,0,1-4.6-1.6,13.6,13.6,0,0,1-6.6-7.8,13.9,13.9,0,0,1,7.7-16.5c2.9.3,6-.5,8.9-1l9.5-1.5,19.7-3.3,38.7-6.4,11-1.8,5.7-1.1a31,31,0,0,0,5.6-1.3,1.1,1.1,0,0,0-.3-2.2c-3.1-.2-6.5.6-9.5,1.1l-9.5,1.6-19.7,3.3-38.7,6.4-11,1.9c-2.9.5-6.3.7-9.2,1.7h-.1a15.3,15.3,0,0,1-8.9-12.9c-.2-5.5,2.8-10.4,7.2-13.5a23.6,23.6,0,0,0,3.3-1.9l4.9-3,9.1-5.8,18.5-11.8L290,110.2l9.1-5.8,4.5-2.9c1.5-1,3.2-1.9,4.3-3.4s-.6-2.6-1.8-2.3-3.3,1.6-4.8,2.5l-4.9,3.1-9,5.8L269,119.1,250.6,131l-9,5.8-4.5,3-1.5,1c-2.9-1.5-6.2-1.8-9.3-2.8a22.6,22.6,0,0,1-8.5-4.7,16.2,16.2,0,0,1-4.6-8.5c-.5-2.3-.7-4.6-1-6.9s.6-3.6.9-5l2.3-11.2q2.4-11.7,5.1-23.4c1.7-7.7,3.6-15.3,5.4-23l2.7-11.5c.9-3.7,2.4-7.6,2.5-11.5a1.1,1.1,0,0,0-2.1-.6c-1.8,3.4-2.4,7.5-3.4,11.2l-3.1,11.8c-2,7.6-3.7,15.3-5.5,22.9s-3.5,15.3-5.1,23c-.8,4-1.6,8-2.4,11.9-.2,1.1-.6,2.5-.9,3.9l-.7.7-1.6,1.9a17.6,17.6,0,0,1-3.9,3.2,17.3,17.3,0,0,1-10.2,2.6,18.2,18.2,0,0,1-13.3-7.7c-.7-1.1-1.3-2.8-2.4-3.6-.4-3.3-1.2-6.7-1.9-10l-2.5-12.1c-1.6-8-3.2-16.1-4.8-24.2l-4.7-24.2c-1.6-8.1-2.9-16.2-5.7-23.9-.3-.8-1.6-.7-1.6.2.3,8.1,2.1,16,3.7,23.9l4.8,24.2c1.6,8.1,3.2,16.1,4.7,24.2l2.3,12.1c.6,3.3,1.2,6.7,2,10-.6,1.8-.6,3.7-1,5.5s-.9,4.2-1.6,6.2c-1.3,4-3.7,6.7-6.9,9.2a15.9,15.9,0,0,1-9.2,3.4,13.3,13.3,0,0,1-5.3-.8c-1.6-.6-3-1.6-4.6-1.9-4-4.7-8.5-8.8-12.9-13.2s-9.1-9.6-13.5-14.5-8.7-10.1-12.8-15.4l-6.3-8.2-3-3.8a31.4,31.4,0,0,0-3.1-4c-.6-.6-1.9,0-1.6.9a24.4,24.4,0,0,0,2.4,4.4c.8,1.4,1.6,2.8,2.5,4.1,1.9,2.9,3.8,5.7,5.8,8.4q6.1,8.3,12.8,16.2c4.4,5.2,9.2,10.2,14,15a96.3,96.3,0,0,0,13.5,11.7.5.5,0,0,0-.2.4c-.2,7.8,3.1,16.7-3.1,23a18.1,18.1,0,0,1-9.3,4.7c-4.1.9-8.4.3-12.4,1.4l-.5-.3-4.4-2.5-8.8-4.8-16.9-9.3L52.4,131.2l-10-5.1a96.7,96.7,0,0,0-9.7-4.5c-.9-.3-1.2.9-.6,1.4a88.3,88.3,0,0,0,8.1,5.2c2.8,1.6,5.5,3.3,8.3,4.9l16.9,9.2,34.3,18.6,9.5,5.1,4.8,2.5a22.8,22.8,0,0,0,4.7,1.7,29.5,29.5,0,0,1,3.8,7.3,18.9,18.9,0,0,1,.3,10.2,19.3,19.3,0,0,1-13.3,13.7,1.6,1.6,0,0,0-.9.6h-4.9l-10.8-.3-21.2-.5c-7.1-.2-14.1-.4-21.2-.5-3.6,0-7.2,0-10.8.2s-7.2,0-10.8.5c-.7.1-1.1,1.3-.2,1.4,3.3.6,6.8.6,10.2,1l10.8.8c7,.4,14.1.4,21.2.5l21.2.5,10.8.2h5.4a21.2,21.2,0,0,0,3.4-.1,21.5,21.5,0,0,1,10.3,14.2c1.3,6.5-1.1,12.3-4.3,17.6a69.5,69.5,0,0,0-9.3,3.5l-11.1,4.6q-10.9,4.4-21.8,8.6c-7.3,2.8-14.7,5.4-22,8l-11.2,4c-1.7.6-3.2,1.5-4.8,2.1l-5.1,2.3c-1.2.5-.3,2.2.8,2A100.3,100.3,0,0,0,44.9,270l11.3-3.7q10.9-3.8,21.7-7.9T99.4,250l10.9-4.5a66.4,66.4,0,0,0,8.6-4.1c5.2.3,10.2,2.5,13,7.1a15.9,15.9,0,0,1,0,15.8c-1.2.8-2.4,1.8-3.5,2.7l-7.3,6.2-14.2,12.3L92.7,298c-2.3,2-4.6,4-6.9,6.1l-3.4,3.1c-1.2,1.1-2.7,2.1-3.5,3.6s.4,2.8,1.8,2.3a11,11,0,0,0,3.6-2.4l3.8-3.2,7.1-5.9,14.5-12.6,14.5-12.6c2.3-2,4.7-4,6.9-6.1a39.7,39.7,0,0,0,3.9-3.9,16.8,16.8,0,0,1,17.3,2.2,18.4,18.4,0,0,1,5.3,6.8c1.2,2.8,1.3,5.7,2.2,8.6h0c-.9,1.8-1.5,3.7-2.3,5.4s-2.6,6.2-3.8,9.3l-7.2,18.2c-2.4,6.1-4.8,12.2-7.2,18.2-1.3,3.1-2.6,6.2-3.8,9.3a58.4,58.4,0,0,0-3.1,9.5.9.9,0,0,0,1.5.7,58.9,58.9,0,0,0,4.4-8.9c1.3-3,2.4-6,3.7-8.9,2.5-6.1,5.1-12.2,7.6-18.3l7.5-18,3.8-9.3a51.5,51.5,0,0,0,2.6-6.9,15.6,15.6,0,0,1,15.7.3,15.1,15.1,0,0,1,5.3,6,15.3,15.3,0,0,1,1.3,3.8,20.9,20.9,0,0,0,.7,3.6,56.6,56.6,0,0,0-1.1,7.2l-1.3,12.3c-.9,8.1-1.6,16.1-2.4,24.2l-2.4,24.2c-.4,4.1-.7,8.2-.8,12.3s-.6,8.2-.4,12.3a.7.7,0,0,0,1.4.2c1-3.9,1.4-8.1,2.1-12.1s1.2-7.9,1.6-11.9l2.5-24.2c.8-8.1,1.7-16.1,2.4-24.2l1.1-12.3a56.9,56.9,0,0,0,.4-8c.8-1,1.3-2.3,2-3.4a21.2,21.2,0,0,1,3-3.6,18.9,18.9,0,0,1,8-4.7,19.9,19.9,0,0,1,9.8,0c2.3.5,4.4,1.8,6.6,2.5a46.7,46.7,0,0,0,2.4,5.6q2.4,5.3,4.9,10.5l9.8,20.6,9.9,20.6c1.7,3.5,3.4,6.9,5.2,10.3.8,1.6,1.6,3.2,2.5,4.8s1.6,3.5,2.9,4.9,2.5-.1,2.3-1.3-1.4-3.9-2.1-5.7-1.4-3.1-2.1-4.7c-1.6-3.6-3.1-7.1-4.8-10.6l-9.6-20.2-9.7-20.2c-1.7-3.5-3.4-7-5.1-10.4s-2.1-4.9-3.8-6.8-1-2-1.4-3a15.2,15.2,0,0,1-.7-4.7,13.9,13.9,0,0,1,3.1-8.7,14.2,14.2,0,0,1,7.3-4.5,24.1,24.1,0,0,1,6.8-.4l1.6.2,3.7,1.4,9.4,3.6,18.1,6.8,36.7,13.6c3.4,1.3,7,3,10.5,3.9s6.8,2.4,10.3,2.8c1.3.1,1.5-1.6.6-2.2-2.6-1.7-5.8-2.5-8.6-3.9a85.1,85.1,0,0,0-8.9-3.4L292.2,281l-36.8-13.1-10.2-3.6a55.9,55.9,0,0,0-7.4-2.5l-2.4-1.9a17.9,17.9,0,0,1-3.5-4.3,17.4,17.4,0,0,1-2.5-10.7,17.1,17.1,0,0,1,4.7-9.8,20,20,0,0,1,4.4-3.5l2.8-1.3a1.8,1.8,0,0,0,1.3-.7h.1l1.7.8,4.7,2,9.9,3.8q10.1,3.8,20.3,7.1c13.5,4.4,27.2,8.3,41,11.5a107.5,107.5,0,0,0,11.4,2.5c3.9.5,7.9,1.3,11.9,1.4a.9.9,0,0,0,.2-1.8c-3.4-1.2-7-1.5-10.3-2.7a94.9,94.9,0,0,0-10.1-2.4q-10.1-2.3-20.2-4.9-20.2-5.3-40-12.4l-11.3-4.2-5.4-2.1a19.9,19.9,0,0,0-4.3-1.4l-.8-1.3a16.9,16.9,0,0,1-1.6-3.8,17.3,17.3,0,0,1-.4-7.9,17.6,17.6,0,0,1,2.9-7,27.6,27.6,0,0,1,2.4-2.9l.3-.3h7l11.1-.3,21.9-.9c14.7-.8,29.4-1.8,44-3.3l12.4-1.4a91.8,91.8,0,0,0,12.2-2.1A.9.9,0,0,0,353.3,193.7Z" fill="#fef9eb"/><path d="M216.2,208a22.9,22.9,0,0,0-3.7,10,22.1,22.1,0,0,0,1.5,10.7,21.7,21.7,0,0,0,3.6,6.2l-2.4.8a39.6,39.6,0,0,0-6.1,2.6,26.5,26.5,0,0,0-9,7.6,18.7,18.7,0,0,0-3.8,10.6c0,.5,0,1,0,1.6l-.7-.8a24.4,24.4,0,0,0-8.7-6.8,20.6,20.6,0,0,0-10.6-1.7,16.3,16.3,0,0,0-6.9,2.2,19.7,19.7,0,0,0-1.2-6.2,24.8,24.8,0,0,0-4.5-8,24,24,0,0,0-6.8-5.6,18,18,0,0,0-7.3-2.5,18.5,18.5,0,0,0,3.8-6.2,24.9,24.9,0,0,0,1.6-10.2,25.4,25.4,0,0,0-2.3-9.3,23.7,23.7,0,0,0-2.7-4.4,7.9,7.9,0,0,0-1.4-1.5,17.2,17.2,0,0,0,5.6-3.2,22.6,22.6,0,0,0,5.7-6.5,22.3,22.3,0,0,0,2.8-8.7,18.5,18.5,0,0,0-.5-7.9,37.5,37.5,0,0,0,7.2-2.7,31.6,31.6,0,0,0,7.4-4.7,22.2,22.2,0,0,0,4.9-5.7,14.5,14.5,0,0,0,1.5-4.4,37.8,37.8,0,0,0,4.5,6,42.6,42.6,0,0,0,7.8,7.1,45.1,45.1,0,0,0,9.3,5.1,25.1,25.1,0,0,0,7.8,2.2,17.7,17.7,0,0,0-1.8,6.5,22,22,0,0,0,1.1,10.2c1.6,4.3,5.3,10.1,10.1,11.8C219.4,203.4,217.4,206.2,216.2,208Z" fill="#fff"/><path d="M14.6,126.2C-85.2,417.6,359.4,555.5,370.7,220,379.5-39.9,80.8-67.4,14.6,126.2Zm347.8,95.3a195.3,195.3,0,0,1-3,30.5c-2,10.4-4.8,20.5-7.2,30.8s-4.9,19.3-9.9,28.1c-9.4,16.8-22.9,31.2-37.3,43.8-6.8,5.9-13.9,11.5-20.9,17.3a162,162,0,0,1-21,15.1,74,74,0,0,1-24.3,9.1,194,194,0,0,1-29.9,2.3,238.9,238.9,0,0,1-59.2-6.2,214.4,214.4,0,0,1-28.4-8.8,99.4,99.4,0,0,1-13.5-6.1,115.9,115.9,0,0,1-11.4-7.7c-3.9-2.9-7.8-5.9-11.8-8.5S76,355.8,72,353a104.3,104.3,0,0,1-20.4-19.9,125.5,125.5,0,0,1-14.5-22.8c-4.3-8.7-7.4-18-10.5-27.3-6.7-20-12.4-40.4-15.5-61.3s-3.7-42.5,1.2-62.9a228.6,228.6,0,0,1,9.8-30.2c3.6-9.2,6.8-18.5,12.5-26.5,16.7-23.7,16.5-33.7,59-62.3,8.4-5.7,17.6-9.5,27.1-12.9l4.7-1.7c3.3-.9,6.6-1.9,9.9-3.1s8.5-3.2,12.8-4.7l1-.2a1.5,1.5,0,0,0,.9-.5c4.8-1.5,9.7-2.5,14.7-3.6s9.5-1.8,14.4-1.3,11,1.1,16.6,1.5a255.9,255.9,0,0,1,30.7,3.9,126.4,126.4,0,0,1,29,8.8c4.9,2.2,9.8,4.6,14.6,7s8.7,4.2,12.4,7.1c7,5.5,11.9,13.3,17.8,19.9s12.5,12.9,18.6,19.5,11.5,13.4,15.7,21.3a112.8,112.8,0,0,1,5.6,13.4l5.6,15c7.3,20,14.1,40.1,16.1,61.4A249.8,249.8,0,0,1,362.4,221.5Z" fill="#8f6b4a"/><path d="M99.8,298.9c3.9-4.1,8.4-7.2,13-10.5a64.4,64.4,0,0,0,5.8-4.7l-4.6,6.4a75.4,75.4,0,0,1-10.6,11.6c-3.8,3.5-7.7,6.9-11.7,10.1a82.2,82.2,0,0,1-9.7,6.5C86.7,310.9,93.8,305.2,99.8,298.9Z" fill="#63812a" opacity="0.65"/><path d="M237.6,129.2c8.2-6.8,17.4-12.2,26.8-17.2a59.5,59.5,0,0,1,6.3-3.1,15.6,15.6,0,0,1,4.1-1.2c-5.4,7.6-14.7,11.9-22,17.5a89.7,89.7,0,0,1-16,9.8l-7.8,3.6-1.8.8A86.7,86.7,0,0,1,237.6,129.2Z" fill="#63812a" opacity="0.65"/><path d="M236.2,348.2a208.4,208.4,0,0,1-10.3-20c-3.1-7.2-6-14.5-8.6-21.8-1.2-3.5-1.7-7.7-3-11.3,2.8,4.3,5.8,8.5,8.4,13,3.4,6,6.2,12.2,9.1,18.5,4.9,10.7,11.6,21.8,12.3,33.8C240.6,357,238.4,352.1,236.2,348.2Z" fill="#63812a" opacity="0.65"/><path d="M202.3,359.5A101.7,101.7,0,0,1,199,346c-1.1-6.1-1.6-12.3-2.3-18.5a127.1,127.1,0,0,1-.8-18.3c.1-3.1.4-6.2.7-9.2v-1.3c1,3.4,1.8,6.8,2.6,10.2,1.3,5.8,3,11.4,4.3,17.2,2.5,10.5,2.8,21.2,4,32a57.6,57.6,0,0,1,.5,6.4,12.4,12.4,0,0,1-.4,4.3C204.8,366.6,203.4,362.8,202.3,359.5Z" fill="#63812a" opacity="0.65"/><path d="M156.7,354.7c.5-6.9.4-13.7,1.7-20.5s3.5-14.4,5.5-21.5c1-3.6,2.1-7.2,3.4-10.7s2.9-6.5,4.2-9.8a32.2,32.2,0,0,1,1.6-3.4c-.5,5.8-1,11.6-1.7,17.3-.9,8.1-2.2,16.1-3.8,24.1a211.6,211.6,0,0,1-5.6,23.3c-1,3.3-2.2,6.6-3.3,10a30.6,30.6,0,0,1-2.1,5.6C155.7,364.5,156.4,359.3,156.7,354.7Z" fill="#63812a" opacity="0.65"/><path d="M242.2,182.9c5.8-2,11.6-4.1,17.6-5.7s12.5-2.6,18.8-3.8c11.4-2.3,23.7-5.7,35.2-3-1.4,2.3-4.4,3.6-6.7,4.7a69.6,69.6,0,0,1-13.4,4.4,156,156,0,0,1-29.4,4.5c-4.4.2-8.8.2-13.2.2h-9.8l.3-.2A1.3,1.3,0,0,0,242.2,182.9Z" fill="#63812a" opacity="0.65"/><path d="M151.3,120.4c-3.5-4.6-5.7-9.6-8.1-14.8s-5.7-11.1-8.1-16.9-4.4-11-7-16.4-5.2-10.5-4.4-16.2c7.7,6.5,12.7,15.8,16.7,24.9,2.3,5.3,4.2,10.8,6.4,16.2a117.3,117.3,0,0,1,5.8,17.6c.7,3.2,1.1,6.4,2.3,9.4l.8,2C154.2,124.1,152.7,122.3,151.3,120.4Z" fill="#63812a" opacity="0.65"/><path d="M201.2,73.3A179.1,179.1,0,0,1,195.4,95c-1.2,3.6-2.3,7.2-3.7,10.8a44,44,0,0,0-1.9,5.2c-1.7-11.7-3.9-23.2-4.6-35a83.8,83.8,0,0,1,.5-18.6,77.5,77.5,0,0,1,4.7-16.6,80.1,80.1,0,0,1,8.9-16.3,8.9,8.9,0,0,1,2.1,4.8,40.3,40.3,0,0,1,.6,7.2c.1,4.8,0,9.6.3,14.5A94,94,0,0,1,201.2,73.3Z" fill="#63812a" opacity="0.65"/><path d="M109.2,179.9a36.3,36.3,0,0,1-7,.8,69.9,69.9,0,0,1-10.9-1.2c-3.3-.6-6.6-1.1-9.9-1.3s-7.1-.2-10.6-.5c-7.1-.6-13.8-2.8-20.7-4.5s-12.8-3-17.1-7.9c12,.2,23.9.9,35.8,1.8a69.9,69.9,0,0,1,17.7,3.1c5.9,2,11.4,4.8,17.2,7.2l6.3,2.4Z" fill="#63812a" opacity="0.65"/><path d="M236.7,156.4a38.5,38.5,0,0,1,6.5-3.6,74.3,74.3,0,0,1,11.1-3.3c3.5-.8,6.9-1.7,10.3-2.8s7-2.7,10.6-3.8c7.2-2.3,14.7-3,22.2-4.1s13.7-2.4,19.9.7c-11.8,4.7-23.8,8.9-35.8,13-6,2-12.2,3.8-18.6,4.2s-13.2,0-19.8,0l-7.2.2Z" fill="#63812a" opacity="0.65"/><path d="M87.1,229.6c-10.4,3.2-21,5.7-31.9,5.9a50.3,50.3,0,0,1-16.4-2.3c8.1-5.6,17.4-8.8,27-10.8a140.3,140.3,0,0,1,16.5-2.6c5.8-.5,11.6-.6,17.4-.8s11.9-.8,17.8-.2C107.9,223.7,97.4,226.5,87.1,229.6Z" fill="#63812a" opacity="0.65"/><path d="M106.9,270.8a260.7,260.7,0,0,1-35.3,17.8l-9.5,3.7a28.8,28.8,0,0,1-7.6,2.4c2.1-4.1,5.9-7.4,9.2-10.4s8.8-7.7,13.5-11.2c9.5-7.1,20.6-11.5,31.3-16.3,6.2-2.8,12.9-4.2,19.5-6l.4-.2,2.5-.2C125.4,259.9,116.1,265.3,106.9,270.8Z" fill="#63812a" opacity="0.65"/><path d="M123.5,146.9c-6.6-3-13.6-4.7-20.3-7.3s-12.6-7-18.5-11-10.8-9.3-15.9-14.3a70.9,70.9,0,0,1-7.8-8.4,36.3,36.3,0,0,1-5-9.4A156.6,156.6,0,0,1,73.7,104c6.1,3.1,12.1,6.5,17.8,10.2a201.4,201.4,0,0,1,17.1,12.5A120,120,0,0,1,124.2,141a83.8,83.8,0,0,1,6.2,7.8l.9,1.4C128.8,149,126,148,123.5,146.9Z" fill="#63812a" opacity="0.65"/><path d="M263,62.2c-1.8,6.8-3.7,13.5-6,20.1a116.5,116.5,0,0,1-9.3,20.7A107.5,107.5,0,0,1,235,119.9c-3.3,3.7-7.9,6.8-11.2,10.7h-1c1.4-6.4,3.7-12.6,5.3-19s2.8-13.4,4.7-20a84.5,84.5,0,0,1,18.6-33.2,67.3,67.3,0,0,1,13.5-11.5C265.7,51.7,264.3,57.3,263,62.2Z" fill="#63812a" opacity="0.65"/><path d="M294.9,337.2c-.3.5-3.1-.2-3.8-.4a77,77,0,0,1-26.4-12.1,98.1,98.1,0,0,1-13.1-12.9c-4.9-5.6-9.3-11.2-12.3-18.1s-4.4-11.4-7.5-16.6a69.8,69.8,0,0,0,9.3,2.4,43.2,43.2,0,0,1,16.2,7.8,90.5,90.5,0,0,1,14.1,13.9c4.4,5.1,8.9,10.3,12.8,15.8a84.5,84.5,0,0,1,9.6,16.7C294.1,334.3,295.2,336.7,294.9,337.2Z" fill="#63812a" opacity="0.65"/><path d="M340.5,224.8c-14.4-7.2-29.7-13-45.6-15.8a72.9,72.9,0,0,0-23.4-.1c-8,1.2-15.4,4.4-23.2,6.3h0l-.5-.3a.3.3,0,0,0-.3.5c1.8,1.1,2.7,2.8,4.3,4.2a14.1,14.1,0,0,0,3.9,2.2,78.8,78.8,0,0,0,12.4,3.8c8.3,1.9,16.8,2.6,25.2,3.4a138.1,138.1,0,0,0,26.2.4,102.3,102.3,0,0,0,11.8-2c2.9-.6,6.5-.3,9.1-1.8A.4.4,0,0,0,340.5,224.8Z" fill="#63812a" opacity="0.65"/><path d="M303.9,268.6c-7.9-.5-16.6-.7-24.1-3.4a78.3,78.3,0,0,1-10.3-5l-10-5.1a48,48,0,0,1-9-6.1,29.3,29.3,0,0,0-4.2-3.5c3,.5,6,1.2,9,1.4s8,.3,12,1a142.4,142.4,0,0,1,21.9,5.7,188.1,188.1,0,0,1,22.8,9.2c4,1.9,7.8,4.8,12.1,6.3C317.3,269.1,310.6,269,303.9,268.6Z" fill="#63812a" opacity="0.65"/><path d="M144.7,276.4l-1.2,1a.4.4,0,0,0-.4.1l-.2.4c-5.4,4.1-11.1,7.8-16.2,12.3a77.6,77.6,0,0,0-13.6,16.7c-6.8,10.7-14.2,24.3-12.6,37.5,0,.3.4.5.6.3,4.8-5.3,10.6-9.5,16.1-14a47.9,47.9,0,0,0,12.5-15c6.1-11.9,6-26.4,13.7-37.4l1.6-1.5C145.2,276.5,144.9,276.2,144.7,276.4Z" fill="#63812a" opacity="0.65"/><path d="M248.9,151.7c-.8,0-2.9,0-2.7-.9,2.4-3.1,5.6-6,9.5-6.9,2-.5,4.3-.4,5,1.9a3.5,3.5,0,0,1-1,3.7c-1.9,1.7-5,2-7.5,2.2Z" fill="#311e1b"/><path d="M143.8,114.1c.2.7.7,2.8-.2,2.9-3.6-1.5-7.2-4-9-7.5-.9-1.8-1.5-4.1.6-5.3a3.5,3.5,0,0,1,3.9,0c2.1,1.4,3.2,4.4,4,6.7S143.6,113,143.8,114.1Z" fill="#311e1b"/><path d="M138.5,303.7c.4-.5,1.5-1.9,2.2-1.2,1.2,3.5,1.7,7.4.4,10.6-.7,1.6-1.9,3.1-4.1,2.2a3.8,3.8,0,0,1-2.4-3c-.3-2.3,1.1-4.6,2.2-6.4Z" fill="#311e1b"/><path d="M223,110.4c-.4.5-1.7,1.8-2.2,1.1-.9-3.6-1.1-7.5.4-10.6.8-1.6,2.2-3,4.2-1.9a3.8,3.8,0,0,1,2.2,3.1c.1,2.4-1.4,4.5-2.7,6.2Z" fill="#311e1b"/><path d="M203.6,83.5c-.4.6-1.7,2.4-2.3,1.7-1.2-3.7-1.7-8-.2-11.7.7-1.9,2.1-3.8,4.4-3a3.5,3.5,0,0,1,2.5,3c.3,2.6-1.2,5.3-2.5,7.4S204.2,82.6,203.6,83.5Z" fill="#311e1b"/><path d="M118.9,151.3c.5.5,2.2,2,1.4,2.5-3.8.7-8.2.7-11.7-1.2-1.8-1-3.5-2.6-2.4-4.7a3.5,3.5,0,0,1,3.2-2.1c2.6,0,5.1,1.9,7,3.4Z" fill="#311e1b"/><path d="M285.2,265.3c-.5-.6-2-2.1-1.2-2.6,3.9-.4,8.2-.1,11.5,2,1.7,1.1,3.3,2.8,2.1,4.9a3.5,3.5,0,0,1-3.4,1.9c-2.6-.2-4.9-2.2-6.8-3.9Z" fill="#311e1b"/><path d="M98.4,182.9c.6.4,2.4,1.6,1.8,2.2-3.7,1.3-7.9,2-11.7.7-1.9-.7-3.8-2-3.2-4.3a3.5,3.5,0,0,1,2.9-2.6c2.5-.4,5.3,1,7.5,2.2Z" fill="#311e1b"/><path d="M240.5,252.2c-.5-.5-2.1-2-1.4-2.5,3.8-.7,8.2-.6,11.6,1.3,1.8,1,3.5,2.6,2.4,4.7a3.5,3.5,0,0,1-3.2,2.1c-2.6,0-5.1-1.9-7-3.4Z" fill="#311e1b"/><path d="M68.3,157.2c.6.5,2.4,1.7,1.7,2.3-3.7,1.1-8,1.6-11.7.1-1.9-.8-3.7-2.2-2.9-4.4a3.5,3.5,0,0,1,3-2.4c2.6-.3,5.3,1.3,7.3,2.6Z" fill="#311e1b"/><path d="M181.3,69.9c-.3.7-1,2.8-1.9,2.2-2.5-3.4-4.6-7.5-4.3-11.5.1-2,.9-4.2,3.6-4a4.3,4.3,0,0,1,3.7,2.3c1.2,2.4.6,5.5-.1,7.9A32.2,32.2,0,0,1,181.3,69.9Z" fill="#311e1b"/><path d="M162.7,124.2c-.2.7-.5,2.9-1.4,2.5-2.6-2.9-4.9-6.6-5.1-10.6-.1-2,.4-4.3,2.7-4.5a3.5,3.5,0,0,1,3.5,1.6c1.3,2.2,1.1,5.3.8,7.7S163,123.1,162.7,124.2Z" fill="#311e1b"/><path d="M79.3,238.6c.8,0,2.9,0,2.7.9-2.4,3.1-5.6,6-9.5,6.9-2,.5-4.3.4-5-1.9a3.5,3.5,0,0,1,1-3.7c1.9-1.7,5-2,7.5-2.2Z" fill="#311e1b"/><path d="M295.4,180.6c-.7-.2-2.8-.9-2.2-1.9,3.4-3,7.6-5.5,11.6-5.5,2.1,0,4.3.8,4,3.7a5.1,5.1,0,0,1-2.3,4.2c-2.5,1.5-5.6.9-8,.4Z" fill="#311e1b"/><path d="M192,99c-1.3-3.4-5.7-5.2-8.1-2.5a4.6,4.6,0,0,0-1.4,3.5,24.1,24.1,0,0,0,.9,8,20.8,20.8,0,0,0,3.7,7.6c1.2,1.4,1.9.2,2.4-1.1C191.6,109.9,194,104.2,192,99Z" fill="#311e1b"/><path d="M103.6,114.7c-3.1-1.9-7.7-.8-8,2.8a4.6,4.6,0,0,0,.9,3.7,24.1,24.1,0,0,0,5.5,5.9,20.8,20.8,0,0,0,7.5,3.9c1.8.4,1.6-1,1.3-2.3C109.8,123.6,108.3,117.6,103.6,114.7Z" fill="#311e1b"/><path d="M285.4,157.7c3.3-1.6,4.7-6.1,1.8-8.3a4.6,4.6,0,0,0-3.6-1.1,24.1,24.1,0,0,0-7.9,1.6,20.8,20.8,0,0,0-7.3,4.3c-1.3,1.3,0,1.9,1.3,2.3C274.5,158.3,280.5,160.1,285.4,157.7Z" fill="#311e1b"/><path d="M89.5,212.6c-3.6.8-6,4.8-3.7,7.6a4.6,4.6,0,0,0,3.3,2,24.1,24.1,0,0,0,8.1.3,20.8,20.8,0,0,0,8.1-2.5c1.5-1,.5-1.8-.7-2.6C100.2,214.6,94.9,211.4,89.5,212.6Z" fill="#311e1b"/><path d="M58.4,222.8c-3,.7-5.1,4-3.1,6.4a3.8,3.8,0,0,0,2.7,1.6,20.2,20.2,0,0,0,6.8.3,17.4,17.4,0,0,0,6.8-2.1c1.3-.8.4-1.6-.6-2.2C67.4,224.4,62.9,221.7,58.4,222.8Z" fill="#311e1b"/><path d="M210,312.7c2.4,2.7,7.1,3,8.4-.4a4.6,4.6,0,0,0,.1-3.8,24.1,24.1,0,0,0-3.6-7.2,20.8,20.8,0,0,0-6.1-5.9c-1.6-.9-1.8.5-1.9,1.8C206.6,302.4,206.3,308.6,210,312.7Z" fill="#311e1b"/><path d="M232.4,125.8c1.8-1.3,4.1-2,6.1-3.1s5-2.7,5.8-5.1-1.6-4.9-4.1-5-5.5,2.7-7.1,5a24.9,24.9,0,0,0-2.6,4.6c-.3.8-1.3,3.8.5,3.6A1.1,1.1,0,0,0,232.4,125.8Z" fill="#311e1b"/><path d="M258.4,192c2.8.1,6.8-.5,8.1-3.4s.9-5-1.6-6-5.7-.1-8.1.8-6.2,2-7.5,4.3a.7.7,0,0,0,0,.7,1,1,0,0,0,.2.7C251.3,191.6,255.6,192,258.4,192Z" fill="#311e1b"/><path d="M276.4,252.8a4.4,4.4,0,0,0,1.2-6.3c-1.6-2.2-4.8-2.6-7.3-2.8s-6.1-.5-8.3,1.1a1.4,1.4,0,0,0-.6,1.9A7.6,7.6,0,0,0,264,249a32.1,32.1,0,0,0,4.2,2.5C270.4,252.7,273.9,254.3,276.4,252.8Z" fill="#311e1b"/><path d="M108.8,312.3a4.4,4.4,0,0,0,5.8,2.7c2.5-1.1,3.7-4,4.5-6.4s2-5.7,1-8.3a1.4,1.4,0,0,0-1.7-1.1,7.6,7.6,0,0,0-2.9,1.9,32,32,0,0,0-3.5,3.4C110.3,306.5,108,309.5,108.8,312.3Z" fill="#311e1b"/><path d="M317.6,215.2a4.4,4.4,0,0,0-.8-6.3c-2.2-1.6-5.4-1-7.8-.5s-5.9,1.3-7.6,3.5a1.4,1.4,0,0,0,0,2,7.6,7.6,0,0,0,3.2,1.4,32.1,32.1,0,0,0,4.7,1.2C311.9,217,315.6,217.4,317.6,215.2Z" fill="#311e1b"/><path d="M296.3,128.4a4.4,4.4,0,0,0-4.2-4.8c-2.7,0-5,2.2-6.7,4s-4.1,4.5-4.2,7.2a1.4,1.4,0,0,0,1.2,1.7,7.6,7.6,0,0,0,3.4-.6,32.1,32.1,0,0,0,4.6-1.7C292.6,133.1,296,131.3,296.3,128.4Z" fill="#311e1b"/><path d="M137.2,282.2a4.4,4.4,0,0,0,6,2.3c2.4-1.2,3.4-4.3,4.1-6.7s1.6-5.9.4-8.3a1.4,1.4,0,0,0-1.8-.9,7.6,7.6,0,0,0-2.7,2.1,32.1,32.1,0,0,0-3.2,3.7C138.3,276.4,136.2,279.5,137.2,282.2Z" fill="#311e1b"/><path d="M257.1,80.2a4.4,4.4,0,0,0-5.5-3.3c-2.6.8-4.1,3.6-5.2,5.9s-2.6,5.5-1.9,8.1a1.4,1.4,0,0,0,1.6,1.2,7.6,7.6,0,0,0,3.1-1.6,32.1,32.1,0,0,0,3.8-3C255,85.8,257.6,83.1,257.1,80.2Z" fill="#311e1b"/><path d="M109.9,268.1c2.5-2.3,3.7-5.8,4.8-8.9a1.3,1.3,0,0,0-1.6-1.6l-2.2.8c-.9-.4-2.2.2-3,.5a22.6,22.6,0,0,0-4.5,1.9c-2.4,1.5-4.4,4-2.3,6.7A5.9,5.9,0,0,0,109.9,268.1Z" fill="#311e1b"/><path d="M138.1,79.1c1.6,3,4.7,5,7.5,6.9s2.3-3.8,2.1-6.5a22.6,22.6,0,0,0-.7-4.9c-.8-2.7-2.8-5.3-5.9-3.9A5.9,5.9,0,0,0,138.1,79.1Z" fill="#311e1b"/><path d="M278.4,289c-2.8-1.9-6.5-2.3-9.8-2.6s-.2,4.4,1.2,6.7a22.6,22.6,0,0,0,2.9,4c2,2,4.9,3.4,7,.7A5.9,5.9,0,0,0,278.4,289Z" fill="#311e1b"/><path d="M76.4,288.2c3-1.7,5-4.8,6.8-7.5s-3.8-2.2-6.5-2a22.6,22.6,0,0,0-4.9.7c-2.7.8-5.3,2.8-3.8,5.9A5.9,5.9,0,0,0,76.4,288.2Z" fill="#311e1b"/><path d="M217.5,339.6c-.8-4.5-3.9-7.2-7.6-9.6-1.4-.9-2.5,1-1.6,2a27.7,27.7,0,0,0,.8,7.7c.6,2.5,1.9,5.7,4.8,6.1S218,342.3,217.5,339.6Z" fill="#311e1b"/><path d="M52.3,184.8c4,2.2,8,1.5,12.2.2,1.5-.5.8-2.5-.5-2.5a27.7,27.7,0,0,0-6.4-4.3c-2.3-1.1-5.6-2.1-7.8-.2S49.9,183.5,52.3,184.8Z" fill="#311e1b"/><path d="M67,118.7c3.2,3.3,7.3,3.8,11.6,3.7s-3.2-7.2-4.7-8.5-4.7-3.6-7.4-2.4S65.1,116.7,67,118.7Z" fill="#311e1b"/><path d="M245.1,304.6c.8-2.8-1.7-5.7-3.5-7.6s-6.4-6.3-8.4-3.8a.8.8,0,0,0-.1.9h0a3.3,3.3,0,0,0,.3,1.8c.5,1.2.8,2.5,1.1,3.8s1.7,5.8,4.1,7.2S244.4,307.2,245.1,304.6Z" fill="#311e1b"/></symbol>





  </svg>



  